<svg width="800" height="790" viewBox="0 0 800 790" fill="none" xmlns="http://www.w3.org/2000/svg">
<rect x="341.56" y="202.884" width="68.0851" height="61.2052" fill="#141414"/>
<path d="M310.088 307.906H90.4116V161.112H310.088V307.906Z" fill="white"/>
<path d="M310.088 307.906C310.088 307.906 310.065 306.988 310.053 305.235C310.046 303.472 310.034 300.878 310.018 297.491C310 290.696 309.972 280.729 309.938 267.968C309.899 242.464 309.842 205.804 309.773 161.112L310.087 161.426C249.554 161.448 173.192 161.475 90.4288 161.505H90.4114L90.8048 161.112C90.7934 213.408 90.7819 263.138 90.772 307.906L90.4114 307.546C155.079 307.618 209.951 307.68 248.674 307.723C268.051 307.765 283.383 307.797 293.889 307.82C299.135 307.839 303.173 307.854 305.916 307.863C307.275 307.873 308.309 307.88 309.022 307.885C309.721 307.892 310.088 307.906 310.088 307.906C310.088 307.906 309.749 307.92 309.064 307.927C308.361 307.932 307.34 307.939 305.999 307.948C303.272 307.958 299.258 307.973 294.044 307.992C283.557 308.014 268.252 308.047 248.91 308.088C210.13 308.132 155.176 308.194 90.4114 308.266H90.0504V307.906C90.0405 263.138 90.0295 213.408 90.0176 161.112V160.719H90.4114H90.4288C173.192 160.748 249.554 160.776 310.087 160.798L310.403 160.798L310.402 161.112C310.333 205.886 310.276 242.612 310.237 268.163C310.202 280.894 310.175 290.837 310.157 297.616C310.141 300.978 310.13 303.551 310.122 305.301C310.11 307.033 310.088 307.906 310.088 307.906Z" fill="#DFDFDF"/>
<path d="M90.4116 174.212C90.4116 173.995 139.551 173.819 200.153 173.819C260.777 173.819 309.906 173.995 309.906 174.212C309.906 174.429 260.777 174.605 200.153 174.605C139.551 174.605 90.4116 174.429 90.4116 174.212Z" fill="#DFDFDF"/>
<path d="M99.0779 167.603C99.0779 168.573 98.2897 169.36 97.3174 169.36C96.3447 169.36 95.5565 168.573 95.5565 167.603C95.5565 166.633 96.3447 165.846 97.3174 165.846C98.2897 165.846 99.0779 166.633 99.0779 167.603Z" fill="#DFDFDF" fill-opacity="0.301961"/>
<path d="M105.111 167.603C105.111 168.573 104.323 169.36 103.35 169.36C102.378 169.36 101.59 168.573 101.59 167.603C101.59 166.633 102.378 165.846 103.35 165.846C104.323 165.846 105.111 166.633 105.111 167.603Z" fill="#DFDFDF" fill-opacity="0.301961"/>
<path d="M111.058 167.603C111.058 168.573 110.269 169.36 109.297 169.36C108.324 169.36 107.536 168.573 107.536 167.603C107.536 166.633 108.324 165.846 109.297 165.846C110.269 165.846 111.058 166.633 111.058 167.603Z" fill="#DFDFDF" fill-opacity="0.301961"/>
<path d="M167.895 248.001H109.297V189.52H167.895V248.001Z" fill="#DFDFDF"/>
<path d="M279.962 206.05C279.962 206.268 257.108 206.444 228.923 206.444C200.727 206.444 177.878 206.268 177.878 206.05C177.878 205.833 200.727 205.657 228.923 205.657C257.108 205.657 279.962 205.833 279.962 206.05Z" fill="#DFDFDF"/>
<path d="M279.962 216.918C279.962 217.135 257.108 217.312 228.923 217.312C200.727 217.312 177.878 217.135 177.878 216.918C177.878 216.701 200.727 216.525 228.923 216.525C257.108 216.525 279.962 216.701 279.962 216.918Z" fill="#DFDFDF"/>
<path d="M279.962 227.786C279.962 228.003 257.108 228.179 228.923 228.179C200.727 228.179 177.878 228.003 177.878 227.786C177.878 227.568 200.727 227.392 228.923 227.392C257.108 227.392 279.962 227.568 279.962 227.786Z" fill="#DFDFDF"/>
<path d="M238.211 238.653C238.211 238.708 237.367 238.76 235.841 238.806C234.173 238.839 231.997 238.881 229.376 238.932C223.917 239.003 216.375 239.047 208.046 239.047C199.714 239.047 192.172 239.003 186.713 238.932C184.091 238.881 181.915 238.839 180.248 238.806C178.722 238.76 177.878 238.708 177.878 238.653C177.878 238.599 178.722 238.548 180.248 238.5C181.915 238.468 184.091 238.426 186.713 238.376C192.172 238.304 199.714 238.26 208.046 238.26C216.375 238.26 223.917 238.304 229.376 238.376C231.997 238.426 234.174 238.468 235.841 238.5C237.367 238.548 238.211 238.599 238.211 238.653Z" fill="#DFDFDF"/>
<path d="M140.502 295.203H112.964V267.719H140.502V295.203Z" fill="#DFDFDF"/>
<path d="M190.444 295.203H162.906V267.719H190.444V295.203Z" fill="#DFDFDF"/>
<path d="M240.386 295.203H212.847V267.719H240.386V295.203Z" fill="#DFDFDF"/>
<path d="M290.328 295.203H262.789V267.719H290.328V295.203Z" fill="#DFDFDF"/>
<path d="M710.374 198.26C710.374 198.26 710.158 199.242 709.173 200.74C708.204 202.205 706.27 204.197 703.149 205.143C701.608 205.598 699.795 205.799 697.917 205.449C696.056 205.093 694.101 204.293 692.487 202.865C691.663 202.176 690.937 201.332 690.336 200.385C689.721 199.446 689.241 198.386 688.943 197.257C688.297 195.009 688.417 192.473 689.29 190.153C690.203 187.846 691.819 185.885 693.81 184.651C694.791 184.013 695.859 183.549 696.947 183.265C698.03 182.965 699.136 182.826 700.209 182.866C702.367 182.889 704.354 183.605 705.974 184.588C707.601 185.587 708.811 186.95 709.646 188.32C711.324 191.113 711.418 193.884 711.151 195.619C710.874 197.388 710.374 198.26 710.374 198.26C710.299 198.237 710.709 197.327 710.904 195.589C711.091 193.881 710.922 191.207 709.261 188.556C708.434 187.256 707.259 185.971 705.696 185.038C704.139 184.121 702.242 183.457 700.198 183.454C699.18 183.423 698.133 183.562 697.11 183.852C696.081 184.126 695.072 184.57 694.148 185.178C692.268 186.352 690.751 188.204 689.887 190.382C689.064 192.576 688.943 194.964 689.547 197.093C689.824 198.162 690.273 199.166 690.851 200.058C691.415 200.958 692.097 201.763 692.873 202.421C694.391 203.787 696.243 204.567 698.014 204.929C699.8 205.285 701.535 205.12 703.023 204.71C706.036 203.857 707.961 201.988 708.97 200.597C709.995 199.177 710.303 198.227 710.374 198.26Z" fill="#DFDFDF"/>
<path d="M720.856 208.823C720.853 208.815 720.984 208.826 721.246 208.857C721.535 208.893 721.923 208.941 722.425 209.003C723.504 209.148 725.059 209.357 727.077 209.627L726.968 209.691C727.909 207.209 729.148 203.947 730.645 200.001L730.706 200.194C729.123 199.144 727.364 197.978 725.482 196.729L725.388 196.667L725.4 196.553C725.62 194.459 725.591 192.193 725.209 189.853L725.189 189.729L725.291 189.652C726.856 188.481 728.551 187.214 730.313 185.895L730.241 186.17C728.908 183.19 727.494 180.029 726.009 176.709L726.288 176.854C724.383 177.233 722.284 177.65 720.134 178.078L719.976 178.109L719.876 177.984C718.571 176.364 716.92 174.75 715.018 173.384L714.883 173.286L714.907 173.121C715.185 171.2 715.492 169.082 715.805 166.925L715.985 167.232C712.94 166.065 709.657 164.807 706.292 163.517L706.646 163.406C705.56 165.026 704.367 166.805 703.158 168.608L703.056 168.76L702.873 168.741C700.789 168.515 698.479 168.545 696.188 168.914L696.004 168.944L695.892 168.794C694.716 167.221 693.434 165.506 692.139 163.773L692.517 163.872C689.513 165.203 686.293 166.631 683.029 168.078L683.211 167.727C683.595 169.667 684.01 171.762 684.427 173.872L684.465 174.061L684.314 174.182C682.656 175.508 681.053 177.151 679.709 179.007L679.707 179.01L679.706 179.011C679.57 179.069 680.011 178.884 679.4 179.14L679.394 179.14L679.382 179.138L679.358 179.134L679.308 179.127L679.211 179.113L679.015 179.084L678.625 179.027L677.844 178.914L676.288 178.687C675.252 178.535 674.22 178.385 673.194 178.235L673.537 178.034C672.275 181.301 671.029 184.525 669.801 187.703L669.682 187.327C671.436 188.501 673.172 189.664 674.891 190.815L675.049 190.92L675.029 191.109C674.782 193.353 674.845 195.603 675.192 197.779L675.221 197.964L675.071 198.076C673.368 199.34 671.692 200.585 670.036 201.815L670.133 201.447C671.567 204.682 672.967 207.841 674.333 210.922L674.007 210.753C676.097 210.344 678.149 209.943 680.165 209.549L680.336 209.515L680.445 209.65C681.873 211.432 683.515 212.98 685.285 214.265L685.421 214.363L685.396 214.528C685.082 216.651 684.777 218.71 684.479 220.72L684.312 220.434C687.717 221.752 690.931 222.997 693.991 224.181L693.7 224.273C694.933 222.447 696.09 220.734 697.206 219.082L697.284 218.967L697.422 218.982C699.803 219.244 702.042 219.156 704.13 218.832L704.257 218.812L704.332 218.914C705.688 220.743 706.91 222.391 708.065 223.948L707.836 223.888C711.52 222.277 714.658 220.904 717.345 219.729L717.263 219.887C716.794 217.43 716.409 215.414 716.088 213.735L716.076 213.673L716.124 213.635C717.909 212.218 719.052 210.958 719.785 210.112C720.13 209.695 720.394 209.376 720.587 209.142C720.766 208.917 720.853 208.816 720.856 208.823C720.859 208.831 720.782 208.952 720.629 209.174C720.467 209.401 720.221 209.742 719.867 210.179C719.157 211.051 718.032 212.341 716.254 213.795L716.29 213.695C716.632 215.37 717.043 217.38 717.544 219.831L717.567 219.943L717.462 219.99C714.785 221.189 711.659 222.589 707.989 224.233L707.852 224.295L707.761 224.173C706.596 222.624 705.364 220.985 703.995 219.164L704.197 219.246C702.076 219.589 699.798 219.692 697.372 219.437L697.587 219.337C696.479 220.995 695.331 222.713 694.107 224.545L693.999 224.708L693.815 224.637C690.75 223.465 687.531 222.234 684.12 220.93L683.922 220.854L683.953 220.644C684.244 218.632 684.542 216.572 684.849 214.448L684.96 214.711C683.147 213.404 681.464 211.826 679.998 210.008L680.276 210.109C678.261 210.508 676.21 210.915 674.121 211.329L673.891 211.375L673.795 211.16C672.423 208.082 671.016 204.925 669.576 201.694L669.477 201.472L669.672 201.327C671.326 200.095 673.001 198.848 674.701 197.581L674.581 197.877C674.221 195.647 674.155 193.341 674.405 191.041L674.542 191.335C672.822 190.185 671.084 189.024 669.33 187.852L669.12 187.711L669.211 187.476C670.437 184.298 671.681 181.073 672.941 177.805L673.033 177.568L673.286 177.604C674.312 177.754 675.344 177.905 676.38 178.055L677.937 178.282L678.717 178.396L679.108 178.453L679.303 178.482L679.401 178.496L679.45 178.503L679.474 178.507L679.487 178.509L679.492 178.51C678.884 178.766 679.324 178.58 679.189 178.637L679.19 178.636L679.192 178.633C680.571 176.729 682.215 175.044 683.914 173.685L683.801 173.995C683.385 171.885 682.972 169.79 682.588 167.849L682.539 167.601L682.771 167.498C686.036 166.054 689.258 164.63 692.263 163.301L692.492 163.199L692.642 163.4C693.934 165.134 695.214 166.851 696.387 168.425L696.091 168.305C698.438 167.93 700.805 167.903 702.938 168.138L702.654 168.27C703.866 166.47 705.062 164.693 706.152 163.075L706.285 162.878L706.506 162.963C709.868 164.261 713.148 165.527 716.19 166.701L716.402 166.783L716.369 167.008C716.05 169.163 715.737 171.281 715.453 173.2L715.342 172.938C717.281 174.342 718.961 175.995 720.288 177.654L720.031 177.561C722.184 177.142 724.284 176.732 726.19 176.361L726.388 176.322L726.469 176.505C727.939 179.832 729.338 183 730.657 185.986L730.731 186.152L730.585 186.26C728.815 187.568 727.114 188.826 725.542 189.988L725.624 189.787C725.997 192.168 726.012 194.47 725.773 196.594L725.691 196.419C727.563 197.682 729.312 198.862 730.887 199.925L730.995 199.998L730.948 200.118C729.404 204.046 728.129 207.294 727.158 209.764L727.128 209.84L727.048 209.828C725.054 209.514 723.518 209.272 722.452 209.104C721.946 209.02 721.556 208.955 721.265 208.906C720.997 208.859 720.859 208.831 720.856 208.823Z" fill="#DFDFDF"/>
<path fill-rule="evenodd" clip-rule="evenodd" d="M776.062 179.348C774.945 180.884 773.639 182.245 772.19 183.406L773.197 188.504L765.324 191.989L762.213 187.823C760.378 188.116 758.491 188.17 756.599 187.965L753.701 192.279L745.664 189.186L746.416 184.047C744.875 182.934 743.513 181.629 742.35 180.182L737.241 181.188L733.749 173.331L737.924 170.226C737.631 168.395 737.577 166.512 737.783 164.623L733.46 161.732L736.557 153.709L741.707 154.46C742.823 152.923 744.13 151.564 745.58 150.402L744.572 145.304L752.445 141.818L755.556 145.986C757.392 145.693 759.278 145.64 761.17 145.844L764.068 141.531L772.105 144.622L771.353 149.761C772.894 150.875 774.256 152.18 775.42 153.626L780.528 152.62L784.021 160.477L779.845 163.582C780.138 165.414 780.192 167.297 779.987 169.185L784.309 172.077L781.211 180.098L776.062 179.348ZM767.365 170.585C769.201 165.833 766.829 160.495 762.067 158.663C757.305 156.832 751.957 159.2 750.121 163.952C748.286 168.705 750.659 174.042 755.421 175.873C760.183 177.705 765.53 175.338 767.365 170.585Z" fill="#DFDFDF"/>
<path fill-rule="evenodd" clip-rule="evenodd" d="M742.136 131.459C740.384 133.868 738.336 136.001 736.063 137.823L737.644 145.817L725.296 151.283L720.419 144.749C717.54 145.208 714.581 145.293 711.615 144.971L707.07 151.736L694.467 146.887L695.646 138.828C693.23 137.081 691.094 135.035 689.269 132.767L681.259 134.344L675.782 122.023L682.328 117.154C681.869 114.281 681.785 111.329 682.108 108.367L675.329 103.833L680.186 91.2525L688.262 92.4302C690.012 90.0191 692.061 87.8879 694.334 86.066L692.754 78.0708L705.101 72.6049L709.979 79.1399C712.857 78.6813 715.816 78.5979 718.783 78.9186L723.327 72.1543L735.931 77.0023L734.751 85.0609C737.167 86.8075 739.304 88.8538 741.129 91.1224L749.14 89.5451L754.616 101.866L748.069 106.735C748.528 109.608 748.613 112.56 748.29 115.522L755.069 120.057L750.211 132.635L742.136 131.459ZM728.498 117.716C731.376 110.265 727.657 101.894 720.189 99.0218C712.722 96.1496 704.335 99.8635 701.457 107.315C698.579 114.768 702.3 123.138 709.767 126.01C717.235 128.882 725.621 125.17 728.498 117.716Z" fill="#DFDFDF"/>
<path d="M618.288 64.7144C618.259 64.6832 618.588 64.3144 619.207 63.6732C619.93 62.9491 620.821 62.0557 621.873 61C624.142 58.7626 627.306 55.7034 630.827 52.3517L630.907 52.2758L630.91 52.7279C627.362 49.4389 624.178 46.4401 621.895 44.2479C620.836 43.2141 619.941 42.3391 619.214 41.6294C618.59 41.001 618.259 40.6387 618.288 40.6074C618.317 40.5762 618.703 40.8784 619.377 41.4527C620.139 42.1232 621.08 42.9501 622.191 43.9273C624.55 46.0371 627.781 48.9847 631.33 52.2728L631.572 52.4972L631.333 52.725L631.253 52.8014C627.732 56.1525 624.52 59.1617 622.174 61.3182C621.068 62.3167 620.132 63.1625 619.373 63.8479C618.703 64.435 618.318 64.7457 618.288 64.7144Z" fill="#DFDFDF"/>
<path d="M590.907 40.6075C590.936 40.6387 590.608 41.008 589.988 41.6492C589.265 42.3734 588.375 43.2662 587.323 44.3219C585.053 46.5593 581.889 49.6186 578.369 52.9702L578.288 53.0461L578.285 52.5945C581.833 55.883 585.017 58.8818 587.3 61.074C588.359 62.1083 589.255 62.9828 589.982 63.693C590.605 64.3209 590.936 64.6832 590.907 64.7145C590.878 64.7457 590.492 64.4435 589.818 63.8692C589.056 63.1987 588.115 62.3719 587.004 61.3946C584.645 59.2848 581.414 56.3372 577.866 53.0491L577.624 52.8247L577.863 52.5969L577.943 52.521C581.463 49.1694 584.675 46.1602 587.021 44.0042C588.127 43.0052 589.063 42.1594 589.822 41.474C590.493 40.8869 590.878 40.5767 590.907 40.6075Z" fill="#DFDFDF"/>
<path d="M597.935 70.3928C597.775 70.3328 600.649 62.2697 604.354 52.386C608.059 42.4995 611.192 34.5356 611.352 34.5956C611.512 34.6562 608.639 42.7173 604.933 52.6044C601.228 62.4875 598.095 70.4529 597.935 70.3928Z" fill="#DFDFDF"/>
<path d="M649.404 87.6447C649.404 87.6447 649.386 87.1762 649.376 86.2962C649.369 85.3979 649.359 84.1025 649.346 82.4175C649.331 79.0118 649.308 74.0502 649.28 67.7276C649.248 55.0805 649.202 37.0072 649.146 15.2155L649.404 15.4736C623.927 15.4885 593.289 15.5064 560.344 15.5252H560.337L560.646 15.2155C560.634 41.3986 560.623 66.125 560.613 87.6447L560.337 87.3678C586.78 87.4249 609.01 87.473 624.651 87.5062C632.472 87.538 638.642 87.5628 642.88 87.5797C644.983 87.5941 646.602 87.605 647.719 87.6125C648.257 87.6194 648.67 87.6249 648.97 87.6283C649.253 87.6338 649.404 87.6447 649.404 87.6447C649.404 87.6447 649.274 87.6551 649.002 87.6606C648.709 87.6641 648.306 87.6695 647.781 87.6765C646.677 87.6839 645.076 87.6948 642.997 87.7092C638.773 87.7261 632.624 87.7509 624.83 87.7827C609.146 87.8164 586.854 87.8641 560.337 87.9212L560.06 87.9217V87.6447C560.05 66.125 560.039 41.3986 560.027 15.2155V14.9058H560.337H560.344C593.289 14.9247 623.927 14.9426 649.404 14.9574H649.663L649.662 15.2155C649.607 37.0747 649.561 55.2041 649.528 67.8899C649.5 74.1876 649.478 79.1299 649.462 82.5218C649.449 84.1859 649.439 85.4649 649.433 86.3513C649.423 87.2139 649.404 87.6447 649.404 87.6447Z" fill="#DFDFDF"/>
<path d="M650.102 25.9625C650.102 26.134 629.997 26.2731 605.202 26.2731C580.398 26.2731 560.297 26.134 560.297 25.9625C560.297 25.7911 580.398 25.6525 605.202 25.6525C629.997 25.6525 650.102 25.7911 650.102 25.9625Z" fill="#DFDFDF"/>
<path d="M567.605 20.6769C567.605 21.3405 567.068 21.8785 566.406 21.8785C565.744 21.8785 565.207 21.3405 565.207 20.6769C565.207 20.0129 565.744 19.4749 566.406 19.4749C567.068 19.4749 567.605 20.0129 567.605 20.6769Z" fill="#DFDFDF"/>
<path d="M571.977 20.6769C571.977 21.3405 571.44 21.8785 570.777 21.8785C570.115 21.8785 569.578 21.3405 569.578 20.6769C569.578 20.0129 570.115 19.4749 570.777 19.4749C571.44 19.4749 571.977 20.0129 571.977 20.6769Z" fill="#DFDFDF"/>
<path d="M576.348 20.6769C576.348 21.3405 575.811 21.8785 575.148 21.8785C574.486 21.8785 573.949 21.3405 573.949 20.6769C573.949 20.0129 574.486 19.4749 575.148 19.4749C575.811 19.4749 576.348 20.0129 576.348 20.6769Z" fill="#DFDFDF"/>
<path d="M477.229 133.632H271.294V50.1507H477.229V133.632Z" fill="white"/>
<path d="M477.229 133.632C477.229 133.632 477.213 133.119 477.205 132.141C477.199 131.152 477.192 129.704 477.181 127.81C477.168 124 477.148 118.404 477.124 111.196C477.095 96.7874 477.052 75.9456 477 50.1507L477.229 50.3795C424.842 50.4038 351.919 50.4385 271.308 50.4763H271.294L271.62 50.1507C271.616 79.3851 271.611 107.604 271.606 133.632L271.294 133.32C330.965 133.38 382.406 133.431 418.945 133.467C437.229 133.504 451.781 133.534 461.778 133.554C466.77 133.571 470.622 133.584 473.241 133.593C474.539 133.602 475.529 133.608 476.209 133.612C476.878 133.619 477.229 133.632 477.229 133.632C477.229 133.632 476.904 133.645 476.248 133.651C475.576 133.656 474.599 133.662 473.317 133.671C470.713 133.679 466.882 133.693 461.918 133.71C451.938 133.73 437.41 133.759 419.157 133.796C382.565 133.833 331.051 133.884 271.294 133.943H270.982V133.632C270.978 107.604 270.973 79.3851 270.968 50.1507V49.8251H271.294H271.308C351.919 49.8633 424.842 49.8975 477.229 49.9219L477.459 49.9224L477.458 50.1507C477.405 76.0042 477.363 96.8931 477.334 111.334C477.309 118.521 477.291 124.1 477.278 127.897C477.267 129.774 477.258 131.207 477.253 132.187C477.245 133.15 477.229 133.632 477.229 133.632Z" fill="#DFDFDF"/>
<path d="M271.5 61.4095C271.5 61.2291 317.531 61.0835 374.299 61.0835C431.088 61.0835 477.108 61.2291 477.108 61.4095C477.108 61.5893 431.088 61.7349 374.299 61.7349C317.531 61.7349 271.5 61.5893 271.5 61.4095Z" fill="#DFDFDF"/>
<path d="M280.122 56.3734C280.122 57.1973 279.452 57.8648 278.627 57.8648C277.802 57.8648 277.132 57.1973 277.132 56.3734C277.132 55.55 277.802 54.882 278.627 54.882C279.452 54.882 280.122 55.55 280.122 56.3734Z" fill="#EBEBEB" fill-opacity="0.301961"/>
<path d="M285.242 56.3734C285.242 57.1973 284.574 57.8648 283.748 57.8648C282.923 57.8648 282.254 57.1973 282.254 56.3734C282.254 55.55 282.923 54.882 283.748 54.882C284.574 54.882 285.242 55.55 285.242 56.3734Z" fill="#EBEBEB" fill-opacity="0.301961"/>
<path d="M290.291 56.3734C290.291 57.1973 289.621 57.8648 288.796 57.8648C287.971 57.8648 287.301 57.1973 287.301 56.3734C287.301 55.55 287.971 54.882 288.796 54.882C289.621 54.882 290.291 55.55 290.291 56.3734Z" fill="#EBEBEB" fill-opacity="0.301961"/>
<path d="M338.537 124.62H288.796V74.9778H338.537V124.62Z" fill="#DFDFDF"/>
<path d="M462.981 88.2814C462.981 88.4613 437.384 88.6068 405.817 88.6068C374.239 88.6068 348.648 88.4613 348.648 88.2814C348.648 88.1015 374.239 87.9554 405.817 87.9554C437.384 87.9554 462.981 88.1015 462.981 88.2814Z" fill="#DFDFDF"/>
<path d="M462.981 98.3943C462.981 98.5741 437.384 98.7202 405.817 98.7202C374.239 98.7202 348.648 98.5741 348.648 98.3943C348.648 98.2144 374.239 98.0683 405.817 98.0683C437.384 98.0683 462.981 98.2144 462.981 98.3943Z" fill="#DFDFDF"/>
<path d="M422.249 108.507C422.249 108.53 421.991 108.552 421.501 108.573C420.94 108.589 420.229 108.609 419.356 108.634C417.407 108.66 414.734 108.695 411.469 108.738C404.732 108.763 395.572 108.796 385.45 108.833C375.325 108.796 366.163 108.763 359.426 108.738C356.161 108.695 353.489 108.66 351.539 108.634C350.666 108.609 349.956 108.589 349.395 108.573C348.905 108.552 348.648 108.53 348.648 108.507C348.648 108.485 348.905 108.463 349.395 108.442C349.956 108.426 350.666 108.405 351.539 108.38C353.488 108.355 356.161 108.32 359.426 108.277C366.163 108.252 375.325 108.218 385.45 108.182C395.572 108.218 404.732 108.252 411.469 108.277C414.734 108.32 417.407 108.355 419.356 108.38C420.229 108.405 420.94 108.426 421.501 108.442C421.991 108.463 422.249 108.485 422.249 108.507Z" fill="#DFDFDF"/>
<path d="M338.537 124.62H288.796V74.9778H338.537V124.62Z" fill="#DFDFDF"/>
<path d="M462.981 88.2814C462.981 88.4613 437.384 88.6068 405.817 88.6068C374.239 88.6068 348.648 88.4613 348.648 88.2814C348.648 88.1015 374.239 87.9554 405.817 87.9554C437.384 87.9554 462.981 88.1015 462.981 88.2814Z" fill="#DFDFDF"/>
<path d="M462.981 98.3943C462.981 98.5741 437.384 98.7202 405.817 98.7202C374.239 98.7202 348.648 98.5741 348.648 98.3943C348.648 98.2144 374.239 98.0683 405.817 98.0683C437.384 98.0683 462.981 98.2144 462.981 98.3943Z" fill="#DFDFDF"/>
<path d="M422.249 108.507C422.249 108.53 421.991 108.552 421.501 108.573C420.94 108.589 420.229 108.609 419.356 108.634C417.407 108.66 414.734 108.695 411.469 108.738C404.732 108.763 395.572 108.796 385.45 108.833C375.325 108.796 366.163 108.763 359.426 108.738C356.161 108.695 353.489 108.66 351.539 108.634C350.666 108.609 349.956 108.589 349.395 108.573C348.905 108.552 348.648 108.53 348.648 108.507C348.648 108.485 348.905 108.463 349.395 108.442C349.956 108.426 350.666 108.405 351.539 108.38C353.488 108.355 356.161 108.32 359.426 108.277C366.163 108.252 375.325 108.218 385.45 108.182C395.572 108.218 404.732 108.252 411.469 108.277C414.734 108.32 417.407 108.355 419.356 108.38C420.229 108.405 420.94 108.426 421.501 108.442C421.991 108.463 422.249 108.485 422.249 108.507Z" fill="#DFDFDF"/>
<path d="M799.407 736.577C799.407 736.829 624.343 737.033 408.44 737.033C192.463 737.033 17.4366 736.829 17.4366 736.577C17.4366 736.325 192.463 736.121 408.44 736.121C624.343 736.121 799.407 736.325 799.407 736.577Z" fill="#342638"/>
<path d="M733.269 394.244H487.429V194.363H733.269V394.244Z" fill="#DFDFDF"/>
<path d="M715.789 406.949H469.949V207.068H715.789V406.949Z" fill="#EBEBEB"/>
<path d="M698.264 426.196H445.865V220.983H698.264V426.196Z" fill="white"/>
<path d="M698.264 426.196C698.264 426.196 698.236 424.895 698.222 422.412C698.212 419.918 698.197 416.246 698.178 411.455C698.155 401.858 698.122 387.798 698.08 369.873C698.032 334.051 697.964 282.795 697.882 220.983L698.263 221.363C626.061 221.385 539.233 221.41 445.886 221.439H445.865L446.322 220.983C446.304 295.19 446.287 365.26 446.272 426.195L445.865 425.789C520.891 425.873 583.939 425.943 628.249 425.993C650.422 426.039 667.903 426.076 679.859 426.101C685.831 426.121 690.418 426.138 693.533 426.149C695.075 426.159 696.249 426.167 697.056 426.172C697.849 426.18 698.264 426.196 698.264 426.196C698.264 426.196 697.88 426.211 697.103 426.219C696.306 426.225 695.147 426.233 693.624 426.242C690.528 426.253 685.967 426.27 680.031 426.291C668.096 426.316 650.647 426.352 628.513 426.399C584.139 426.448 521 426.519 445.865 426.603L445.457 426.603V426.195C445.442 365.26 445.425 295.19 445.408 220.983V220.526H445.865H445.886C539.233 220.555 626.061 220.581 698.263 220.602H698.645L698.645 220.983C698.563 282.894 698.495 334.233 698.448 370.113C698.405 388.001 698.372 402.032 698.349 411.609C698.33 416.368 698.316 420.017 698.306 422.494C698.292 424.951 698.264 426.196 698.264 426.196Z" fill="#342638"/>
<path d="M698.264 238.055C698.264 238.307 641.96 238.511 572.522 238.511C503.059 238.511 446.767 238.307 446.767 238.055C446.767 237.804 503.059 237.6 572.522 237.6C641.96 237.6 698.264 237.804 698.264 238.055Z" fill="#342638"/>
<path d="M454.302 229.094C454.302 229.986 453.578 230.708 452.684 230.708C451.791 230.708 451.067 229.986 451.067 229.094C451.067 228.203 451.791 227.479 452.684 227.479C453.578 227.479 454.302 228.203 454.302 229.094Z" fill="#342638"/>
<path d="M460.518 229.094C460.518 229.986 459.793 230.708 458.9 230.708C458.006 230.708 457.282 229.986 457.282 229.094C457.282 228.203 458.006 227.479 458.9 227.479C459.793 227.479 460.518 228.203 460.518 229.094Z" fill="#342638"/>
<path d="M466.733 229.094C466.733 229.986 466.009 230.708 465.115 230.708C464.222 230.708 463.498 229.986 463.498 229.094C463.498 228.203 464.222 227.479 465.115 227.479C466.009 227.479 466.733 228.203 466.733 229.094Z" fill="#342638"/>
<path d="M462.738 427.89C462.486 427.89 462.281 385.291 462.281 332.753C462.281 280.197 462.486 237.606 462.738 237.606C462.99 237.606 463.195 280.197 463.195 332.753C463.195 385.291 462.99 427.89 462.738 427.89Z" fill="#DFDFDF"/>
<path d="M214.497 127.144H110.545V53.1911H214.497V127.144Z" fill="#DFDFDF"/>
<path d="M215.312 64.1641C215.312 64.4157 191.847 64.6197 162.908 64.6197C133.96 64.6197 110.5 64.4157 110.5 64.1641C110.5 63.9119 133.96 63.7079 162.908 63.7079C191.847 63.7079 215.312 63.9119 215.312 64.1641Z" fill="white"/>
<path d="M119.029 58.7672C119.029 59.4447 118.402 59.9941 117.63 59.9941C116.856 59.9941 116.23 59.4447 116.23 58.7672C116.23 58.0897 116.856 57.5403 117.63 57.5403C118.402 57.5403 119.029 58.0897 119.029 58.7672Z" fill="white"/>
<path d="M124.131 58.7672C124.131 59.4447 123.504 59.9941 122.731 59.9941C121.958 59.9941 121.332 59.4447 121.332 58.7672C121.332 58.0897 121.958 57.5403 122.731 57.5403C123.504 57.5403 124.131 58.0897 124.131 58.7672Z" fill="white"/>
<path d="M129.232 58.7672C129.232 59.4447 128.606 59.9941 127.833 59.9941C127.06 59.9941 126.433 59.4447 126.433 58.7672C126.433 58.0897 127.06 57.5403 127.833 57.5403C128.606 57.5403 129.232 58.0897 129.232 58.7672Z" fill="white"/>
<path d="M769.741 402.857H675.768V336.003H769.741V402.857Z" fill="#342638"/>
<path d="M770.478 345.923C770.478 346.086 749.265 346.219 723.105 346.219C696.935 346.219 675.727 346.086 675.727 345.923C675.727 345.76 696.935 345.628 723.105 345.628C749.265 345.628 770.478 345.76 770.478 345.923Z" fill="white"/>
<path d="M683.438 341.044C683.438 341.657 682.871 342.153 682.172 342.153C681.474 342.153 680.907 341.657 680.907 341.044C680.907 340.432 681.474 339.935 682.172 339.935C682.871 339.935 683.438 340.432 683.438 341.044Z" fill="white"/>
<path d="M688.049 341.044C688.049 341.657 687.483 342.153 686.784 342.153C686.085 342.153 685.519 341.657 685.519 341.044C685.519 340.432 686.085 339.935 686.784 339.935C687.483 339.935 688.049 340.432 688.049 341.044Z" fill="white"/>
<path d="M692.662 341.044C692.662 341.657 692.095 342.153 691.396 342.153C690.698 342.153 690.131 341.657 690.131 341.044C690.131 340.432 690.698 339.935 691.396 339.935C692.095 339.935 692.662 340.432 692.662 341.044Z" fill="white"/>
<path d="M129.937 384.323H60.6643V335.042H129.937V384.323Z" fill="#DFDFDF"/>
<path d="M130.48 342.354C130.48 342.474 114.843 342.572 95.5586 342.572C76.2671 342.572 60.6334 342.474 60.6334 342.354C60.6334 342.234 76.2671 342.136 95.5586 342.136C114.843 342.136 130.48 342.234 130.48 342.354Z" fill="white"/>
<path d="M66.3177 338.758C66.3177 339.209 65.9 339.575 65.3848 339.575C64.8696 339.575 64.4523 339.209 64.4523 338.758C64.4523 338.306 64.8696 337.94 65.3848 337.94C65.9 337.94 66.3177 338.306 66.3177 338.758Z" fill="white"/>
<path d="M69.7173 338.758C69.7173 339.209 69.2995 339.575 68.7848 339.575C68.2696 339.575 67.8519 339.209 67.8519 338.758C67.8519 338.306 68.2696 337.94 68.7848 337.94C69.2995 337.94 69.7173 338.306 69.7173 338.758Z" fill="white"/>
<path d="M73.1174 338.758C73.1174 339.209 72.6996 339.575 72.1844 339.575C71.6692 339.575 71.2515 339.209 71.2515 338.758C71.2515 338.306 71.6692 337.94 72.1844 337.94C72.6996 337.94 73.1174 338.306 73.1174 338.758Z" fill="white"/>
<path d="M563.144 178.799C563.144 178.799 563.118 178.321 563.105 177.427C563.095 176.501 563.082 175.187 563.065 173.486C563.043 170.009 563.012 164.957 562.972 158.499C562.927 145.551 562.861 126.972 562.782 104.29L563.144 104.65C531.499 104.676 491.245 104.709 447.553 104.745H447.544L448.001 104.29C447.988 130.751 447.976 155.945 447.964 178.799L447.544 178.38C481.459 178.464 510.3 178.535 530.701 178.586C540.895 178.634 548.978 178.673 554.552 178.699C557.304 178.721 559.436 178.738 560.917 178.75C561.62 178.761 562.163 178.769 562.568 178.775C562.941 178.783 563.135 178.791 563.144 178.799C563.152 178.808 562.975 178.816 562.617 178.825C562.225 178.831 561.696 178.839 561.013 178.849C559.552 178.861 557.449 178.878 554.733 178.9C549.181 178.926 541.13 178.965 530.978 179.013C510.508 179.063 481.572 179.135 447.544 179.219L447.124 179.22L447.124 178.799C447.113 155.945 447.101 130.751 447.087 104.29V103.833H447.544H447.553C491.245 103.869 531.499 103.902 563.144 103.928H563.507L563.506 104.29C563.426 127.066 563.36 145.722 563.315 158.722C563.275 165.147 563.245 170.171 563.223 173.629C563.206 175.301 563.192 176.593 563.182 177.502C563.17 178.372 563.144 178.799 563.144 178.799Z" fill="#342638"/>
<path d="M563.143 115.345C563.143 115.597 537.253 115.801 505.323 115.801C473.383 115.801 447.498 115.597 447.498 115.345C447.498 115.093 473.383 114.889 505.323 114.889C537.253 114.889 563.143 115.093 563.143 115.345Z" fill="#342638"/>
<path d="M456.092 109.907C456.092 110.59 455.461 111.144 454.682 111.144C453.903 111.144 453.272 110.59 453.272 109.907C453.272 109.225 453.903 108.671 454.682 108.671C455.461 108.671 456.092 109.225 456.092 109.907Z" fill="#342638"/>
<path d="M461.232 109.907C461.232 110.59 460.601 111.144 459.822 111.144C459.043 111.144 458.412 110.59 458.412 109.907C458.412 109.225 459.043 108.671 459.822 108.671C460.601 108.671 461.232 109.225 461.232 109.907Z" fill="#342638"/>
<path d="M466.373 109.907C466.373 110.59 465.741 111.144 464.962 111.144C464.183 111.144 463.552 110.59 463.552 109.907C463.552 109.225 464.183 108.671 464.962 108.671C465.741 108.671 466.373 109.225 466.373 109.907Z" fill="#342638"/>
<path d="M229.27 433.431L275.103 587.831C277.139 594.687 283.449 599.39 290.614 599.39L476.57 599.901C486.44 599.928 494.307 591.673 493.785 581.835C493.301 572.725 485.758 565.586 476.617 565.586H405.504L348.555 407.226H248.876C235.208 407.226 225.387 420.351 229.27 433.431Z" fill="#584464"/>
<path d="M386.598 578.266C386.598 578.627 367.638 578.92 344.254 578.92C320.862 578.92 301.905 578.627 301.905 578.266C301.905 577.905 320.862 577.612 344.254 577.612C367.638 577.612 386.598 577.905 386.598 578.266Z" fill="#342638"/>
<path d="M242.945 412.13C243.288 412.016 255.95 448.984 271.223 494.69C286.502 540.411 298.605 577.556 298.262 577.671C297.918 577.785 285.259 540.825 269.98 495.103C254.708 449.397 242.602 412.244 242.945 412.13Z" fill="#342638"/>
<path d="M378.864 736.577L367.532 736.31V599.39H378.864V736.577Z" fill="#584464"/>
<path d="M320.45 735.952H425.945L378.155 719.376H366.823L320.45 735.952Z" fill="#584464"/>
<path d="M293.771 371.823L311.225 458.854L308.11 524.078L425.44 504.603L420.836 447.488L420.747 400.227L449.518 455.871L471.919 412.689L430.904 338.543L430.901 338.551C423.388 330.769 414.591 325.013 404.067 321.214C398.954 319.368 393.527 318.264 387.25 317.998V317.998C373.711 322.174 360.172 322.182 346.633 318.022C344.984 318.229 342.696 318.445 339.813 318.785C339.637 318.806 339.46 318.827 339.285 318.848C314.387 321.874 295.381 342.538 294.007 367.533L293.771 371.823Z" fill="#DFDFDF"/>
<path d="M339.813 318.785C339.813 318.785 291.605 319.15 285.632 369.965L284.821 407.226L326.341 406.867L339.813 318.785Z" fill="#DFDFDF"/>
<path d="M420.119 455.871C419.757 455.863 419.919 435.268 420.478 409.878C421.039 384.479 421.786 363.901 422.148 363.909C422.509 363.917 422.348 384.507 421.788 409.907C421.228 435.297 420.481 455.879 420.119 455.871Z" fill="#342638"/>
<path d="M403.637 422.471C403.637 422.471 426.441 424.099 430.548 430.115C434.653 436.131 440.908 453.291 438.538 453.416C436.168 453.541 434.443 452.125 434.443 452.125L428.194 441.07C428.194 441.07 429.198 451.75 425.461 451.962C421.724 452.174 403.208 455.871 403.208 455.871L403.637 422.471Z" fill="#825F4E"/>
<path d="M284.836 397.307L284.751 455.978C285.492 469.691 298.364 479.478 311.809 476.552L403.753 457.647L403.557 420.023L324.225 435.217L323.168 395.392L284.836 397.307Z" fill="#DFDFDF"/>
<path d="M337.293 471.853C337.286 471.822 337.7 471.707 338.506 471.515C339.405 471.313 340.586 471.048 342.071 470.715C345.306 470.031 349.86 469.069 355.584 467.86C367.32 465.466 383.837 462.096 403.443 458.098L402.972 458.669C402.952 446.856 402.931 433.805 402.908 420.023L403.679 420.659C398.501 421.653 393.052 422.698 387.515 423.761C364.276 428.175 342.576 432.298 324.331 435.763L323.644 435.893L323.668 435.207C324.268 417.744 324.768 403.198 325.122 392.897C325.332 387.888 325.498 383.916 325.616 381.082C325.688 379.795 325.745 378.768 325.79 377.975C325.838 377.273 325.878 376.911 325.907 376.913C325.937 376.914 325.955 377.279 325.963 377.984C325.961 378.779 325.959 379.808 325.957 381.099C325.912 383.935 325.849 387.911 325.769 392.925C325.529 403.224 325.19 417.766 324.783 435.226L324.121 434.67C342.355 431.15 364.043 426.962 387.268 422.476C392.806 421.418 398.256 420.376 403.435 419.386L404.207 419.239L404.206 420.023C404.184 433.805 404.161 446.856 404.142 458.669L404.141 459.151L403.671 459.242C384.028 463.051 367.479 466.26 355.72 468.54C349.968 469.614 345.393 470.468 342.142 471.075C340.643 471.335 339.451 471.542 338.542 471.699C337.725 471.831 337.299 471.884 337.293 471.853Z" fill="#342638"/>
<path d="M390.034 318.785C390.076 318.771 390.205 319.066 390.41 319.645C390.641 320.218 390.876 321.093 391.122 322.24C391.582 324.518 391.837 328.025 390.692 332.115C389.588 336.192 386.91 340.704 382.712 344.404C378.586 348.193 372.491 350.773 365.977 350.712C359.467 350.774 353.311 348.124 349.431 344.006C345.501 339.902 343.771 334.88 343.276 330.722C342.82 326.504 343.571 323.078 344.434 320.905C344.872 319.813 345.268 318.997 345.614 318.482C345.931 317.955 346.115 317.691 346.153 317.714C346.286 317.784 345.596 318.883 344.916 321.071C344.22 323.239 343.642 326.567 344.194 330.605C344.785 334.587 346.542 339.344 350.298 343.168C353.991 346.991 359.79 349.461 365.977 349.405C372.175 349.458 377.938 347.06 381.913 343.501C385.996 339.986 388.632 335.73 389.804 331.852C391.014 327.965 390.916 324.576 390.619 322.321C390.316 320.047 389.903 318.823 390.034 318.785Z" fill="#342638"/>
<path d="M394.473 460.759C394.285 460.74 394.356 458.529 394.491 454.968C394.628 451.406 394.8 446.491 394.834 441.06C394.864 435.628 394.751 430.71 394.656 427.147C394.562 423.584 394.517 421.374 394.705 421.357C394.878 421.342 395.249 423.528 395.581 427.093C395.913 430.657 396.174 435.602 396.144 441.068C396.11 446.532 395.79 451.473 395.415 455.033C395.042 458.594 394.645 460.776 394.473 460.759Z" fill="#F9F9F9"/>
<path d="M389.727 461.718C389.542 461.706 389.523 459.51 389.562 455.97C389.605 451.925 389.655 447.278 389.711 442.146C389.706 437.013 389.701 432.364 389.698 428.32C389.693 424.779 389.734 422.584 389.919 422.574C390.096 422.565 390.381 424.746 390.624 428.288C390.866 431.83 391.046 436.734 391.021 442.153C390.993 447.57 390.765 452.471 390.487 456.01C390.21 459.55 389.904 461.728 389.727 461.718Z" fill="#F9F9F9"/>
<path d="M481.798 694.836L499.176 742.595L523.834 776.416C525.611 778.853 524.949 782.283 522.391 783.887C520.959 784.785 519.196 784.941 517.633 784.294C507.69 780.177 471.188 764.848 470.113 761.282C468.867 757.152 445.304 705.787 445.304 705.787L481.798 694.836Z" fill="#584464"/>
<path d="M522.391 783.887L468.866 758.086L469.648 760.093C470.325 761.827 471.588 763.27 473.23 764.154C477.62 766.516 489.888 772.777 517.49 784.351C519.096 785.025 520.941 784.851 522.391 783.887Z" fill="white" fill-opacity="0.6"/>
<path d="M472.646 739.029C474.154 739.388 475.242 741.031 474.945 742.55C474.649 744.069 472.984 745.189 471.469 744.857C469.955 744.525 468.587 742.591 469.053 741.115C469.518 739.639 471.545 738.432 472.936 739.117L472.646 739.029Z" fill="white" fill-opacity="0.6"/>
<path d="M503.478 767.411C503.798 767.437 503.901 764.542 506.202 762.112C508.43 759.614 511.312 759.263 511.258 758.947C511.254 758.815 510.509 758.68 509.338 758.955C508.174 759.22 506.63 760 505.378 761.358C504.131 762.719 503.486 764.322 503.321 765.501C503.147 766.689 503.346 767.418 503.478 767.411Z" fill="#342638"/>
<path d="M509.33 772.439C509.636 772.556 510.559 770.425 512.739 768.77C514.883 767.067 517.178 766.699 517.14 766.374C517.182 766.079 514.507 765.962 512.052 767.89C509.578 769.79 509.034 772.407 509.33 772.439Z" fill="#342638"/>
<path d="M494.018 761.727C494.328 761.866 495.73 758.581 498.895 755.712C502.015 752.792 505.407 751.66 505.294 751.34C505.273 751.058 501.491 751.769 498.136 754.891C494.751 757.978 493.737 761.683 494.018 761.727Z" fill="#342638"/>
<path d="M487.52 747.649C487.757 747.884 489.952 745.773 493.315 744.325C496.658 742.831 499.7 742.645 499.688 742.312C499.728 742.029 496.462 741.706 492.865 743.303C489.255 744.868 487.284 747.487 487.52 747.649Z" fill="#342638"/>
<path d="M482.063 733.758C482.317 733.975 484.337 731.373 488.003 730.138C491.643 728.821 494.847 729.598 494.91 729.271C494.949 729.142 494.199 728.749 492.859 728.543C491.528 728.332 489.602 728.401 487.634 729.085C485.669 729.775 484.121 730.92 483.212 731.913C482.293 732.908 481.952 733.681 482.063 733.758Z" fill="#342638"/>
<path d="M486.888 727.525C486.948 727.503 486.807 726.824 486.254 725.709C485.702 724.603 484.709 723.044 482.998 721.572C482.142 720.891 481.167 719.967 479.6 719.859C478.818 719.799 477.885 720.302 477.567 721.148C477.247 721.974 477.373 722.821 477.65 723.577C478.872 726.564 482.591 728.467 486.147 727.583C489.693 726.634 492.018 723.499 492.353 720.381C492.386 719.595 492.268 718.691 491.588 718.035C490.911 717.368 489.822 717.421 489.188 717.801C487.86 718.559 487.287 719.714 486.694 720.637C485.571 722.584 485.097 724.356 484.891 725.573C484.686 726.798 484.736 727.488 484.8 727.492C485.015 727.552 485.092 724.701 487.37 721.047C487.964 720.179 488.626 719.116 489.603 718.628C490.079 718.387 490.581 718.418 490.912 718.748C491.243 719.059 491.375 719.692 491.325 720.32C491.014 722.886 488.882 725.746 485.872 726.501C482.883 727.277 479.616 725.598 478.61 723.205C478.377 722.624 478.303 721.978 478.48 721.511C478.655 721.051 479.085 720.777 479.592 720.784C480.659 720.796 481.666 721.55 482.496 722.181C485.851 724.882 486.695 727.654 486.888 727.525Z" fill="#342638"/>
<path d="M555.161 682.343L553.659 721.158C553.659 721.158 592.687 735.718 593.109 742.918L517.595 742.714L517.449 682.14L555.161 682.343Z" fill="#445964" fill-opacity="0.301961"/>
<path d="M530.318 717.829C528.855 718.225 527.841 719.862 528.176 721.336C528.511 722.811 530.171 723.855 531.64 723.485C533.109 723.117 534.387 721.188 533.889 719.761C533.39 718.333 531.375 717.214 530.037 717.923L530.318 717.829Z" fill="white" fill-opacity="0.301961"/>
<path d="M517.595 742.715L517.58 736.674L590.138 739.087C590.138 739.087 593.495 740.556 593.109 742.919L517.595 742.715Z" fill="white" fill-opacity="0.301961"/>
<path d="M554.884 720.778C554.871 721.146 553.027 721.308 551.21 722.487C549.361 723.617 548.421 725.209 548.083 725.062C547.743 724.99 548.298 722.791 550.524 721.403C552.737 719.995 554.965 720.44 554.884 720.778Z" fill="#F5F0FA"/>
<path d="M562.796 724.069C562.88 724.426 561.281 725.047 560.024 726.6C558.722 728.116 558.401 729.798 558.034 729.782C557.687 729.839 557.438 727.683 559.038 725.781C560.619 723.866 562.789 723.718 562.796 724.069Z" fill="#F5F0FA"/>
<path d="M567.269 733.542C566.933 733.619 566.426 731.779 567.378 729.767C568.316 727.746 570.057 726.956 570.212 727.263C570.419 727.566 569.297 728.644 568.541 730.309C567.745 731.955 567.635 733.506 567.269 733.542Z" fill="#F5F0FA"/>
<path d="M554.243 711.894C554.087 712.229 552.398 711.717 550.312 711.853C548.225 711.946 546.602 712.64 546.411 712.324C546.198 712.057 547.785 710.699 550.243 710.574C552.698 710.43 554.426 711.606 554.243 711.894Z" fill="#F5F0FA"/>
<path d="M554.855 690.031L554.597 696.948L517.484 696.511L517.453 690.277L554.855 690.031Z" fill="black" fill-opacity="0.301961"/>
<path d="M554.402 704.058C554.405 704.21 552.948 704.434 550.62 704.028C549.461 703.825 548.096 703.443 546.666 702.805C545.952 702.485 545.221 702.102 544.498 701.648C544.15 701.424 543.738 701.198 543.358 700.758C542.95 700.373 542.721 699.397 543.194 698.8C543.582 698.221 544.267 697.974 544.812 697.963C545.369 697.946 545.819 698.059 546.23 698.162C547.071 698.368 547.858 698.649 548.579 698.974C550.02 699.632 551.19 700.464 552.06 701.267C553.808 702.891 554.402 704.267 554.276 704.338C554.108 704.46 553.259 703.305 551.48 701.964C550.592 701.296 549.459 700.606 548.112 700.058C547.437 699.788 546.71 699.555 545.943 699.384C545.143 699.172 544.463 699.164 544.256 699.519C544.182 699.655 544.172 699.708 544.338 699.942C544.511 700.158 544.834 700.369 545.176 700.592C545.843 701.029 546.514 701.409 547.171 701.737C548.487 702.393 549.745 702.842 550.823 703.146C552.985 703.754 554.409 703.859 554.402 704.058Z" fill="#342638"/>
<path d="M553.92 704.584C553.789 704.641 553.061 703.32 552.932 700.936C552.873 699.754 553 698.322 553.46 696.805C553.694 696.049 554.012 695.275 554.429 694.516C554.874 693.773 555.416 692.777 556.847 692.617C557.594 692.591 558.213 693.175 558.424 693.674C558.672 694.184 558.72 694.622 558.808 695.059C558.944 695.939 558.926 696.802 558.804 697.601C558.562 699.204 557.9 700.537 557.178 701.495C555.697 703.444 554.157 703.88 554.126 703.755C554.003 703.57 555.291 702.863 556.425 700.989C556.984 700.066 557.482 698.847 557.631 697.446C557.707 696.748 557.698 696.008 557.567 695.265C557.452 694.463 557.152 693.817 556.852 693.898C556.476 693.891 555.836 694.493 555.525 695.13C555.136 695.805 554.826 696.496 554.583 697.174C554.106 698.535 553.896 699.838 553.84 700.938C553.731 703.15 554.121 704.529 553.92 704.584Z" fill="#342638"/>
<path d="M517.523 496.276C472.915 500.881 413.773 506.929 413.773 506.929L421.841 579.396C421.841 579.396 508.727 556.479 508.107 558.338C507.486 560.195 512.131 712.529 512.131 712.529H564.455L565.439 540.015C565.796 514.059 543.394 493.604 517.523 496.276Z" fill="#342638"/>
<path d="M307.027 525.51V547.982C307.027 563.279 324.484 579.501 339.812 579.501H351.664C361.005 579.501 375.636 572.716 383.177 567.216L387.707 563.912L442.187 732.362C442.187 732.362 504.531 721.21 504.531 719.247C504.531 717.284 462.311 581.277 442.823 518.151C434.865 492.377 407.197 477.39 381.635 486.139C380.764 486.438 379.892 486.76 379.019 487.109C351.091 498.257 307.027 525.51 307.027 525.51Z" fill="#342638"/>
<path d="M504.531 719.246C504.51 719.254 504.416 719.051 504.254 718.648C504.072 718.171 503.846 717.578 503.566 716.846C502.972 715.257 502.113 712.906 501.094 709.853C499 703.761 496.141 694.894 492.658 683.921C485.705 661.972 476.39 631.563 466.245 597.937C461.2 581.113 456.396 565.09 452.022 550.5C449.85 543.211 447.785 536.282 445.851 529.79C444.884 526.55 443.95 523.419 443.051 520.407C442.152 517.393 441.319 514.511 440.215 511.886C438.082 506.588 434.725 502.539 431.413 499.448C428.064 496.376 424.87 494.061 422.194 492.284C419.526 490.491 417.399 489.175 415.947 488.3C415.282 487.885 414.743 487.549 414.309 487.279C413.943 487.042 413.762 486.912 413.773 486.892C413.784 486.872 413.988 486.964 414.375 487.163C414.827 487.403 415.387 487.702 416.08 488.071C417.577 488.875 419.75 490.124 422.475 491.859C425.205 493.579 428.466 495.847 431.91 498.911C435.313 501.987 438.827 506.116 441.068 511.528C442.226 514.202 443.096 517.118 444.018 520.114C444.94 523.119 445.899 526.243 446.892 529.477C448.862 535.958 450.965 542.876 453.178 550.153C457.582 564.734 462.42 580.747 467.5 597.56C477.657 631.133 486.851 661.526 493.543 683.647C496.912 694.569 499.65 703.441 501.578 709.694C502.526 712.686 503.273 715.046 503.816 716.759C504.045 717.508 504.231 718.115 504.381 718.603C504.501 719.021 504.552 719.239 504.531 719.246Z" fill="#584464"/>
<path d="M517.681 536.605C518.003 536.829 515.038 541.275 512.555 547.31C510.028 553.33 508.968 558.563 508.582 558.494C508.252 558.464 508.75 552.998 511.344 546.809C513.901 540.607 517.427 536.393 517.681 536.605Z" fill="#584464"/>
<path d="M527.677 543.609C527.831 543.973 523.329 545.939 518.647 549.645C513.931 553.309 510.952 557.208 510.634 556.973C510.347 556.812 512.943 552.427 517.838 548.616C522.703 544.773 527.588 543.293 527.677 543.609Z" fill="#584464"/>
<path d="M442.774 732.362C442.43 732.472 427.711 687.393 409.904 631.688C392.089 575.965 377.932 530.718 378.277 530.607C378.621 530.498 393.337 575.567 411.151 631.291C428.959 686.995 443.119 732.252 442.774 732.362Z" fill="#584464"/>
<path d="M375.912 469.576L554.249 471.287L587.504 377.478L457.789 378.354L427.685 462.712L375.912 463.485V469.576Z" fill="#584464"/>
<path d="M511.122 432.464C507.171 431.907 504.422 428.26 504.98 424.318C505.537 420.376 509.192 417.632 513.142 418.189C517.091 418.746 519.841 422.392 519.283 426.334C518.725 430.276 515.071 433.021 511.122 432.464Z" fill="white"/>
<path d="M349.122 244.954L345.886 315.797C345.336 327.845 346.994 345.653 366.118 345.653C382.712 344.404 387.617 328.929 388.119 317.686C388.357 312.353 388.567 307.906 388.627 307.36C388.627 307.36 406.775 306.486 408.896 288.695C409.92 280.099 410.585 262.219 411 246.038C411.446 228.659 398.423 213.86 381.102 212.02L379.38 211.837C360.694 210.947 349.497 226.288 349.122 244.954Z" fill="#825F4E"/>
<path d="M388.685 307.106C388.685 307.106 377.306 306.823 366.119 298.034C366.119 298.034 370.252 311.438 388.234 311.726L388.685 307.106Z" fill="#5B3A29"/>
<path d="M404.528 257.417C404.433 258.765 403.21 259.796 401.797 259.722C400.387 259.648 399.319 258.498 399.414 257.149C399.509 255.801 400.732 254.768 402.143 254.842C403.556 254.915 404.624 256.068 404.528 257.417Z" fill="#070707"/>
<path d="M406.234 254.373C405.883 254.671 404.104 253.039 401.36 252.755C398.623 252.432 396.46 253.627 396.198 253.26C396.068 253.096 396.453 252.531 397.398 251.987C398.328 251.445 399.866 250.984 401.574 251.174C403.281 251.365 404.652 252.144 405.409 252.875C406.184 253.61 406.405 254.241 406.234 254.373Z" fill="#070707"/>
<path d="M377.527 255.488C377.432 256.837 376.209 257.868 374.796 257.794C373.386 257.72 372.317 256.57 372.413 255.221C372.509 253.873 373.732 252.841 375.143 252.914C376.555 252.987 377.623 254.14 377.527 255.488Z" fill="#070707"/>
<path d="M379.218 252.019C378.866 252.317 377.084 250.686 374.342 250.402C371.607 250.079 369.443 251.273 369.181 250.906C369.051 250.743 369.433 250.178 370.381 249.635C371.312 249.091 372.849 248.631 374.557 248.82C376.264 249.011 377.634 249.791 378.393 250.521C379.165 251.257 379.388 251.887 379.218 252.019Z" fill="#070707"/>
<path d="M387.007 273.379C387.01 273.221 388.747 273.109 391.547 273.05C392.256 273.052 392.933 272.983 393.102 272.518C393.321 272.031 393.108 271.246 392.856 270.397C392.377 268.636 391.878 266.789 391.352 264.854C389.284 256.97 387.866 250.517 388.185 250.437C388.504 250.357 390.439 256.682 392.507 264.566C393 266.508 393.472 268.36 393.92 270.131C394.101 270.954 394.461 271.904 393.991 272.914C393.746 273.416 393.192 273.74 392.73 273.813C392.267 273.902 391.872 273.868 391.523 273.852C388.727 273.706 387.001 273.535 387.007 273.379Z" fill="#070707"/>
<path d="M381.725 284.452C382.057 284.15 383.941 286.472 387.269 286.513C390.598 286.563 392.869 284.299 393.15 284.61C393.301 284.729 392.963 285.507 391.937 286.381C390.938 287.246 389.17 288.127 387.134 288.102C385.1 288.071 383.486 287.143 382.635 286.253C381.76 285.353 381.555 284.568 381.725 284.452Z" fill="#070707"/>
<path d="M381.07 241.366C380.719 242.082 378.019 241.438 374.759 241.484C371.499 241.463 368.804 242.128 368.448 241.415C368.292 241.075 368.818 240.423 369.945 239.814C371.061 239.205 372.794 238.698 374.749 238.688C376.703 238.683 378.439 239.177 379.56 239.777C380.691 240.378 381.224 241.026 381.07 241.366Z" fill="#070707"/>
<path d="M406.07 246.343C405.521 246.914 403.701 246.067 401.432 245.795C399.172 245.444 397.191 245.768 396.818 245.07C396.657 244.734 397.026 244.143 397.93 243.644C398.821 243.145 400.258 242.813 401.814 243.026C403.37 243.242 404.663 243.949 405.385 244.67C406.12 245.394 406.316 246.062 406.07 246.343Z" fill="#070707"/>
<path d="M349.174 258.299C348.883 258.135 337.296 253.376 336.386 265.596C335.477 277.816 347.958 276.206 348.005 275.858C348.052 275.509 349.174 258.299 349.174 258.299Z" fill="#825F4E"/>
<path d="M344.61 270.951C344.558 270.908 344.385 271.084 344.012 271.222C343.649 271.357 343.036 271.422 342.415 271.137C341.157 270.567 340.22 268.437 340.325 266.23C340.376 265.116 340.689 264.074 341.149 263.226C341.589 262.36 342.215 261.779 342.874 261.712C343.534 261.61 343.966 262.033 344.09 262.388C344.229 262.742 344.133 262.98 344.196 263.006C344.229 263.039 344.474 262.82 344.413 262.309C344.381 262.063 344.258 261.763 343.988 261.507C343.712 261.247 343.289 261.093 342.832 261.109C341.883 261.104 340.969 261.908 340.463 262.838C339.905 263.769 339.528 264.938 339.47 266.189C339.365 268.658 340.457 271.055 342.189 271.697C343.034 271.985 343.772 271.779 344.164 271.518C344.566 271.244 344.65 270.976 344.61 270.951Z" fill="#5B3A29"/>
<path d="M72.138 619.248C78.3921 616.028 85.7566 615.609 92.6995 616.754C96.4298 617.37 100.319 618.483 102.857 621.28C105.395 624.076 105.876 628.997 102.962 631.4C101.227 632.83 98.8074 633.047 96.5576 633.022C91.1216 632.959 85.0907 632.003 80.7483 635.267C78.2707 637.13 76.6221 640.225 73.6597 641.141C70.7619 642.037 67.4916 640.33 65.955 637.72C64.4183 635.11 64.3671 631.847 65.0837 628.905C65.0837 628.905 65.8376 622.492 72.138 619.248Z" fill="#DFDFDF"/>
<path d="M57.8092 591.642C61.6335 597.093 69.0662 595.289 72.513 591.961C75.9588 588.634 77.4159 583.812 78.7417 579.213C81.7713 568.706 84.8258 557.683 82.573 546.983C81.8996 543.784 80.7011 540.594 78.4488 538.22C76.1965 535.848 72.7328 534.436 69.566 535.27C65.8183 536.259 63.4889 539.922 61.806 543.407C56.8574 553.65 54.2371 565.006 54.1983 576.378C54.1799 581.688 54.8075 587.258 57.8092 591.642Z" fill="#DFDFDF"/>
<path d="M47.3072 599.464C51.4597 594.546 52.2475 587.372 50.4 581.211C48.5525 575.049 44.3781 569.808 39.5672 565.529C33.9273 560.511 27.2967 556.607 20.1698 554.106C17.3645 553.122 14.4056 552.345 11.4461 552.627C8.48616 552.909 5.50531 554.42 4.1248 557.048C2.08336 560.934 4.04075 565.647 6.15778 569.492C9.88706 576.266 14.1515 582.747 18.8982 588.854C22.717 593.768 27.0913 598.615 32.9113 600.835C38.7312 603.056 44.777 602.795 47.8617 598.767L47.3072 599.464Z" fill="#DFDFDF"/>
<path d="M57.5502 673.872C57.6218 673.876 57.7382 672.994 57.8964 671.395C58.0719 669.592 58.2932 667.329 58.5558 664.636C58.8711 661.791 59.2873 658.406 60.0795 654.72C60.8687 651.043 62.1036 647.058 63.6905 643.017C65.3335 639 67.3367 635.349 69.6785 632.428C72.0029 629.495 74.7067 627.372 77.2485 626.147C79.7812 624.899 82.0534 624.391 83.6234 624.166C85.2073 624.004 86.094 623.879 86.0945 623.809C86.0955 623.738 85.2068 623.727 83.5801 623.771C81.9684 623.878 79.6022 624.285 76.9322 625.497C74.2537 626.682 71.3857 628.838 68.947 631.832C66.4888 634.814 64.412 638.546 62.7401 642.635C61.1258 646.747 59.9089 650.773 59.1545 654.529C58.4031 658.279 58.059 661.701 57.8337 664.57C57.6189 667.44 57.5373 669.765 57.498 671.371C57.4622 672.978 57.4806 673.868 57.5502 673.872Z" fill="#342638"/>
<path d="M58.0171 668.671C58.0525 668.669 58.0743 668.273 58.0838 667.521C58.0813 666.658 58.0783 665.57 58.0748 664.234C58.0674 661.383 58.0684 657.255 58.2215 652.158C58.4747 641.964 59.3539 630.992 61.0527 615.525C62.6615 600.98 64.8208 584.053 67.0989 573.048C67.5878 570.545 68.0796 568.292 68.5431 566.321C68.9847 564.344 69.3622 562.639 69.7257 561.26C70.0385 559.963 70.2931 558.905 70.4955 558.066C70.6606 557.332 70.7307 556.942 70.6969 556.932C70.6631 556.922 70.5259 557.293 70.2966 558.01C70.0455 558.836 69.7292 559.879 69.3408 561.159C68.9161 562.525 68.4819 564.219 67.9861 566.187C67.4689 568.151 66.9259 570.398 66.3908 572.898C64.1365 582.869 61.7494 596.806 60.0342 612.311C58.3319 627.811 57.5656 641.924 57.4975 652.144C57.4368 657.254 57.5457 661.391 57.6765 664.245C57.7581 665.58 57.8247 666.666 57.8774 667.53C57.9346 668.28 57.9818 668.673 58.0171 668.671Z" fill="#342638"/>
<path d="M58.0852 641.45C58.1563 641.448 58.1444 640.228 58.0614 638.017C57.9345 635.811 57.6307 632.622 57.0076 628.715C56.3476 624.818 55.4256 620.191 53.9765 615.163C53.3489 612.864 51.8729 607.356 48.2978 599.126C43.5878 587.975 37.1885 578.858 31.6217 573.211C30.3157 571.712 28.8616 570.631 27.6984 569.572C27.0967 569.063 26.5646 568.557 26.0225 568.156C25.478 567.781 24.9707 567.432 24.5008 567.109C22.6682 565.858 21.6423 565.199 21.6045 565.258C21.4399 565.481 25.7077 567.988 31.0975 573.711C36.4654 579.421 42.6857 588.475 47.3579 599.532C49.9632 605.53 51.7799 610.879 53.0684 615.421C54.5578 620.401 55.547 624.981 56.2939 628.839C57.0041 632.706 57.4159 635.863 57.664 638.05C57.8679 640.239 58.0151 641.453 58.0852 641.45Z" fill="#342638"/>
<path d="M31.7231 689.468L34.4558 726.836H82.5571L85.2903 689.468H31.7231Z" fill="#342638"/>
<path d="M27.0768 674.739V689.467H91.0297V674.739H27.0768Z" fill="#342638"/>
<path d="M27.0768 725.406V729.488H30.0815H89.9724V725.406H27.0768Z" fill="#584464"/>
<path d="M33.0277 736.674L30.0817 729.488H87.682L84.2456 736.674H33.0277Z" fill="#584464"/>
<path d="M84.397 701.68C84.408 701.689 84.3314 701.805 84.1728 702.023C83.9818 702.276 83.7451 702.589 83.4542 702.974C82.7709 703.847 81.8324 705.046 80.6518 706.553L80.5275 706.713L80.4067 706.546C78.6452 704.115 76.2925 700.867 73.5225 697.044H73.9188C71.8709 699.938 69.5898 703.161 67.1411 706.622L66.9282 706.922L66.6905 706.64C64.1891 703.67 61.4728 700.444 58.6526 697.095L59.1156 697.089C58.9763 697.264 58.8251 697.454 58.6735 697.644C56.1805 700.763 53.7681 703.781 51.4859 706.636L51.2467 706.936L51.0254 706.624C48.5851 703.178 46.3055 699.959 44.2442 697.049L44.6385 697.067C41.2967 700.867 38.4625 704.09 36.2873 706.563L36.1386 706.732L36.0257 706.542C34.9252 704.696 34.0474 703.225 33.4109 702.158C33.1374 701.682 32.9166 701.297 32.74 700.99C32.5923 700.723 32.5222 700.582 32.5351 700.574C32.5481 700.566 32.6431 700.692 32.8151 700.944C33.0106 701.239 33.2552 701.61 33.5576 702.068C34.2255 703.115 35.147 704.56 36.3027 706.372L36.0416 706.351C38.182 703.848 40.9704 700.585 44.2586 696.739L44.466 696.497L44.6535 696.758C46.7332 699.655 49.0337 702.86 51.4954 706.29L51.0349 706.278C53.311 703.419 55.718 700.396 58.205 697.272C58.3567 697.082 58.5079 696.892 58.6476 696.717L58.8759 696.431L59.1111 696.711C61.9238 700.067 64.6327 703.299 67.1271 706.274L66.6771 706.292C69.1502 702.849 71.4542 699.642 73.522 696.763L73.7229 696.483L73.9188 696.763C76.6301 700.628 78.9337 703.911 80.6573 706.368L80.4126 706.36C81.641 704.891 82.6167 703.723 83.3278 702.873C83.6441 702.507 83.9007 702.211 84.1081 701.971C84.2881 701.77 84.3861 701.671 84.397 701.68Z" fill="#DFDFDF"/>
<path d="M85.96 689.221C85.96 689.387 73.9073 689.52 59.0434 689.52C44.1735 689.52 32.1238 689.387 32.1238 689.221C32.1238 689.056 44.1735 688.922 59.0434 688.922C73.9073 688.922 85.96 689.056 85.96 689.221Z" fill="#584464"/>
<path d="M88.3895 729.891C88.3895 730.056 75.291 730.19 59.1366 730.19C42.9761 730.19 29.8801 730.056 29.8801 729.891C29.8801 729.726 42.9761 729.592 59.1366 729.592C75.291 729.592 88.3895 729.726 88.3895 729.891Z" fill="#342638"/>
<path d="M657.029 299.689L623.615 439.171H632.96L665.877 299.689H657.029Z" fill="#342638"/>
<path d="M644.197 391.556C643.594 394.112 659.33 470.141 659.33 470.141H651.755L639.87 409.89L644.197 391.556Z" fill="#342638"/>
<path d="M755.48 736.28H598.943V570.661H755.48V736.28Z" fill="#584464"/>
<path d="M763.166 602.534H755.48V594.863H763.166V602.534Z" fill="#342638"/>
<path d="M763.166 626.89H755.48V619.218H763.166V626.89Z" fill="#342638"/>
<path d="M763.166 651.245H755.48V643.574H763.166V651.245Z" fill="#342638"/>
<path d="M763.166 675.6H755.48V667.929H763.166V675.6Z" fill="#342638"/>
<path d="M763.448 645.815C763.439 645.755 764.278 645.563 765.812 645.299C767.345 645.047 769.583 644.683 772.397 644.676C775.18 644.678 778.674 645.154 781.91 647.177C783.503 648.185 785.003 649.614 785.978 651.467C786.957 653.312 787.366 655.508 787.193 657.69C787.024 659.876 786.303 661.955 785.196 663.697C784.095 665.442 782.663 666.861 781.149 667.969C778.091 670.185 774.76 671.167 771.995 671.576C769.21 671.993 766.932 671.903 765.379 671.801C763.823 671.682 762.974 671.523 762.979 671.467C762.985 671.398 763.845 671.437 765.393 671.446C766.936 671.44 769.186 671.429 771.889 670.941C774.576 670.46 777.759 669.444 780.648 667.293C783.514 665.191 786.001 661.749 786.282 657.62C786.442 655.59 786.068 653.57 785.184 651.881C784.306 650.185 782.939 648.85 781.455 647.883C778.434 645.941 775.105 645.402 772.384 645.321C769.638 645.245 767.402 645.507 765.859 645.65C764.315 645.806 763.457 645.88 763.448 645.815Z" fill="#342638"/>
<path d="M761.535 621.607C761.522 621.581 761.769 621.421 762.267 621.163C762.767 620.909 763.526 620.571 764.544 620.244C766.563 619.598 769.72 618.995 773.536 619.745C774.483 619.948 775.483 620.268 776.4 620.881C777.316 621.482 778.092 622.456 778.426 623.608C779.085 625.929 778.329 628.583 776.667 630.593C775.835 631.597 774.753 632.481 773.427 632.973C772.131 633.479 770.498 633.487 769.188 632.747C767.899 632.07 766.752 630.725 766.753 629.068C766.748 627.428 767.846 625.997 769.239 625.273C770.665 624.542 772.279 624.512 773.717 624.804C775.176 625.098 776.512 625.776 777.622 626.662C779.846 628.443 781.241 631.022 781.525 633.622C781.833 636.249 780.887 638.74 779.523 640.558C778.151 642.405 776.415 643.716 774.71 644.614C771.242 646.366 768.083 646.684 765.988 646.884C764.928 646.97 764.103 646.996 763.545 647.002C762.986 647.006 762.692 646.989 762.69 646.959C762.686 646.886 763.857 646.802 765.949 646.531C768.015 646.229 771.114 645.803 774.403 644.046C776.019 643.152 777.649 641.865 778.909 640.114C780.165 638.383 780.99 636.096 780.689 633.718C780.413 631.352 779.104 628.975 777.067 627.363C776.05 626.559 774.844 625.954 773.536 625.693C772.238 625.43 770.827 625.479 769.662 626.081C768.516 626.671 767.646 627.855 767.662 629.067C767.644 630.281 768.533 631.39 769.611 631.96C770.698 632.574 771.987 632.578 773.128 632.156C774.271 631.742 775.256 630.962 776.021 630.054C777.552 628.252 778.245 625.817 777.698 623.82C777.151 621.768 775.157 620.751 773.394 620.374C769.752 619.574 766.65 620.053 764.644 620.584C762.615 621.13 761.571 621.685 761.535 621.607Z" fill="#342638"/>
<path d="M761.614 597.834C761.606 597.792 762.199 597.594 763.32 597.52C764.436 597.444 766.092 597.545 768.018 598.178C769.921 598.827 772.105 600.05 773.867 602.11C775.646 604.146 776.798 607.057 776.902 610.165C776.99 613.275 776.019 616.252 774.367 618.394C772.735 620.558 770.63 621.912 768.77 622.676C766.887 623.426 765.24 623.627 764.122 623.62C762.999 623.615 762.394 623.453 762.4 623.41C762.377 623.208 764.944 623.674 768.514 622.084C770.256 621.282 772.203 619.942 773.689 617.895C775.191 615.875 776.068 613.104 775.989 610.194C775.889 607.285 774.843 604.573 773.221 602.649C771.612 600.697 769.586 599.479 767.798 598.784C764.138 597.416 761.604 598.038 761.614 597.834Z" fill="#342638"/>
<path d="M645.423 482.669C645.423 482.669 646.045 483.661 646.74 485.76C647.441 487.853 648.19 491.029 648.818 495.167C649.465 499.302 650.012 504.392 650.555 510.304C651.118 516.213 651.599 522.961 652.551 530.356C652.794 532.204 653.089 534.088 653.469 535.994C653.862 537.89 654.317 539.845 655.16 541.634C656.055 543.338 657.527 544.916 658.998 546.366C660.512 547.814 662.21 549.128 664.061 550.263C667.759 552.532 672.093 554.096 676.698 554.555C681.28 555.027 686.193 554.377 690.524 552.169C694.86 550.026 698.38 545.926 699.458 540.974C699.99 538.527 699.883 535.888 698.932 533.53C697.986 531.161 696.225 529.139 694.07 527.667C691.891 526.23 689.32 525.322 686.667 525.206C684.033 525.108 681.31 525.793 679.172 527.407C678.111 528.203 677.197 529.213 676.633 530.397C676.075 531.579 675.882 532.923 676.141 534.221C676.653 536.835 678.582 539.1 680.995 540.379C683.431 541.7 686.225 542.239 688.992 542.587C691.769 542.954 694.555 543.111 697.321 543.162C702.857 543.263 708.316 542.816 713.659 542.242C724.339 541.051 734.644 539.34 744.601 539.232C754.509 539.069 764.135 540.506 772.15 544.425C776.136 546.374 779.688 548.937 782.404 552.068C785.16 555.168 786.904 558.882 787.727 562.568C789.333 570.014 787.609 577.091 784.685 582.27C781.716 587.503 777.732 591.005 774.28 593.354C770.79 595.705 767.755 596.98 765.685 597.731C763.603 598.47 762.463 598.702 762.463 598.702C762.463 598.702 762.731 598.586 763.265 598.405C763.803 598.236 764.592 597.948 765.62 597.559C767.659 596.756 770.651 595.436 774.079 593.062C777.468 590.691 781.364 587.188 784.238 582.022C787.069 576.917 788.704 569.957 787.097 562.71C786.273 559.12 784.568 555.536 781.872 552.531C779.217 549.496 775.736 547.003 771.817 545.104C763.937 541.287 754.439 539.887 744.613 540.072C734.739 540.2 724.475 541.921 713.757 543.13C708.395 543.712 702.901 544.167 697.306 544.069C694.511 544.019 691.692 543.862 688.875 543.49C686.071 543.136 683.168 542.592 680.557 541.179C677.957 539.793 675.826 537.347 675.244 534.388C674.95 532.918 675.171 531.35 675.81 530.008C676.453 528.66 677.471 527.548 678.628 526.681C680.951 524.929 683.891 524.197 686.706 524.305C689.54 524.433 692.261 525.398 694.571 526.927C696.855 528.49 698.736 530.648 699.754 533.203C700.777 535.754 700.877 538.567 700.311 541.159C699.169 546.389 695.43 550.696 690.908 552.916C686.391 555.203 681.329 555.85 676.617 555.352C671.883 554.866 667.445 553.246 663.663 550.906C661.769 549.736 660.035 548.382 658.49 546.891C656.967 545.364 655.532 543.851 654.527 541.943C653.637 540.03 653.197 538.052 652.805 536.127C652.431 534.195 652.145 532.297 651.91 530.44C650.995 523.008 650.56 516.261 650.045 510.349C649.552 504.436 649.057 499.35 648.466 495.218C647.893 491.085 647.204 487.914 646.565 485.815C646.249 484.765 645.964 483.975 645.737 483.462C645.515 482.945 645.423 482.669 645.423 482.669Z" fill="#342638"/>
<path d="M746.576 729.354C746.576 729.354 746.561 729.1 746.554 728.622C746.548 728.124 746.541 727.422 746.531 726.505C746.52 724.621 746.505 721.871 746.484 718.294C746.46 711.103 746.424 700.608 746.379 687.272C746.33 660.613 746.26 622.621 746.176 577.169L746.576 577.568C705.149 577.585 656.665 577.605 605.079 577.625H605.065L605.521 577.169C605.497 633.117 605.474 685.4 605.455 729.353L605.065 728.964C647.543 729.047 682.868 729.116 707.604 729.164C719.978 729.207 729.696 729.242 736.351 729.265C739.659 729.285 742.2 729.3 743.943 729.31C745.666 729.325 746.576 729.354 746.576 729.354C746.576 729.354 745.724 729.383 744.028 729.398C742.303 729.407 739.786 729.422 736.511 729.442C729.876 729.466 720.188 729.5 707.852 729.543C683.056 729.592 647.645 729.661 605.065 729.743L604.674 729.743V729.353C604.655 685.4 604.632 633.117 604.608 577.169V576.713H605.065H605.079C656.665 576.734 705.149 576.753 746.576 576.77H746.977L746.976 577.169C746.892 622.727 746.823 660.807 746.774 687.528C746.728 700.826 746.693 711.29 746.669 718.46C746.648 722.003 746.632 724.727 746.622 726.593C746.612 727.491 746.604 728.179 746.599 728.667C746.592 729.13 746.576 729.354 746.576 729.354Z" fill="#342638"/>
<path d="M706.724 595.887C706.724 596.288 706.398 596.613 705.996 596.613C705.594 596.613 705.268 596.288 705.268 595.887C705.268 595.486 705.594 595.161 705.996 595.161C706.398 595.161 706.724 595.486 706.724 595.887Z" fill="#342638"/>
<path d="M710.722 595.887C710.722 596.288 710.396 596.613 709.994 596.613C709.592 596.613 709.266 596.288 709.266 595.887C709.266 595.486 709.592 595.161 709.994 595.161C710.396 595.161 710.722 595.486 710.722 595.887Z" fill="#342638"/>
<path d="M714.721 595.887C714.721 596.288 714.394 596.613 713.993 596.613C713.591 596.613 713.265 596.288 713.265 595.887C713.265 595.486 713.591 595.161 713.993 595.161C714.394 595.161 714.721 595.486 714.721 595.887Z" fill="#342638"/>
<path d="M718.719 595.887C718.719 596.288 718.393 596.613 717.991 596.613C717.588 596.613 717.263 596.288 717.263 595.887C717.263 595.486 717.588 595.161 717.991 595.161C718.393 595.161 718.719 595.486 718.719 595.887Z" fill="#342638"/>
<path d="M722.717 595.887C722.717 596.288 722.391 596.613 721.989 596.613C721.587 596.613 721.261 596.288 721.261 595.887C721.261 595.486 721.587 595.161 721.989 595.161C722.391 595.161 722.717 595.486 722.717 595.887Z" fill="#342638"/>
<path d="M726.715 595.887C726.715 596.288 726.389 596.613 725.987 596.613C725.585 596.613 725.259 596.288 725.259 595.887C725.259 595.486 725.585 595.161 725.987 595.161C726.389 595.161 726.715 595.486 726.715 595.887Z" fill="#342638"/>
<path d="M730.713 595.887C730.713 596.288 730.387 596.613 729.986 596.613C729.583 596.613 729.258 596.288 729.258 595.887C729.258 595.486 729.583 595.161 729.986 595.161C730.387 595.161 730.713 595.486 730.713 595.887Z" fill="#342638"/>
<path d="M728.87 598.569C728.87 598.97 728.544 599.295 728.143 599.295C727.74 599.295 727.414 598.97 727.414 598.569C727.414 598.167 727.74 597.842 728.143 597.842C728.544 597.842 728.87 598.167 728.87 598.569Z" fill="#342638"/>
<path d="M724.78 598.569C724.78 598.97 724.454 599.295 724.052 599.295C723.649 599.295 723.323 598.97 723.323 598.569C723.323 598.167 723.649 597.842 724.052 597.842C724.454 597.842 724.78 598.167 724.78 598.569Z" fill="#342638"/>
<path d="M720.689 598.569C720.689 598.97 720.363 599.295 719.961 599.295C719.559 599.295 719.233 598.97 719.233 598.569C719.233 598.167 719.559 597.842 719.961 597.842C720.363 597.842 720.689 598.167 720.689 598.569Z" fill="#342638"/>
<path d="M716.598 598.569C716.598 598.97 716.272 599.295 715.87 599.295C715.468 599.295 715.142 598.97 715.142 598.569C715.142 598.167 715.468 597.842 715.87 597.842C716.272 597.842 716.598 598.167 716.598 598.569Z" fill="#342638"/>
<path d="M712.507 598.569C712.507 598.97 712.181 599.295 711.779 599.295C711.377 599.295 711.051 598.97 711.051 598.569C711.051 598.167 711.377 597.842 711.779 597.842C712.181 597.842 712.507 598.167 712.507 598.569Z" fill="#342638"/>
<path d="M708.417 598.569C708.417 598.97 708.091 599.295 707.689 599.295C707.287 599.295 706.961 598.97 706.961 598.569C706.961 598.167 707.287 597.842 707.689 597.842C708.091 597.842 708.417 598.167 708.417 598.569Z" fill="#342638"/>
<path d="M706.724 601.603C706.724 602.004 706.398 602.33 705.996 602.33C705.594 602.33 705.268 602.004 705.268 601.603C705.268 601.202 705.594 600.877 705.996 600.877C706.398 600.877 706.724 601.202 706.724 601.603Z" fill="#342638"/>
<path d="M710.722 601.603C710.722 602.004 710.396 602.33 709.994 602.33C709.592 602.33 709.266 602.004 709.266 601.603C709.266 601.202 709.592 600.877 709.994 600.877C710.396 600.877 710.722 601.202 710.722 601.603Z" fill="#342638"/>
<path d="M714.721 601.603C714.721 602.004 714.394 602.33 713.993 602.33C713.591 602.33 713.265 602.004 713.265 601.603C713.265 601.202 713.591 600.877 713.993 600.877C714.394 600.877 714.721 601.202 714.721 601.603Z" fill="#342638"/>
<path d="M718.719 601.603C718.719 602.004 718.393 602.33 717.991 602.33C717.588 602.33 717.263 602.004 717.263 601.603C717.263 601.202 717.588 600.877 717.991 600.877C718.393 600.877 718.719 601.202 718.719 601.603Z" fill="#342638"/>
<path d="M722.717 601.603C722.717 602.004 722.391 602.33 721.989 602.33C721.587 602.33 721.261 602.004 721.261 601.603C721.261 601.202 721.587 600.877 721.989 600.877C722.391 600.877 722.717 601.202 722.717 601.603Z" fill="#342638"/>
<path d="M726.715 601.603C726.715 602.004 726.389 602.33 725.987 602.33C725.585 602.33 725.259 602.004 725.259 601.603C725.259 601.202 725.585 600.877 725.987 600.877C726.389 600.877 726.715 601.202 726.715 601.603Z" fill="#342638"/>
<path d="M730.713 601.603C730.713 602.004 730.387 602.33 729.986 602.33C729.583 602.33 729.258 602.004 729.258 601.603C729.258 601.202 729.583 600.877 729.986 600.877C730.387 600.877 730.713 601.202 730.713 601.603Z" fill="#342638"/>
<path d="M728.87 604.285C728.87 604.686 728.544 605.012 728.143 605.012C727.74 605.012 727.414 604.686 727.414 604.285C727.414 603.884 727.74 603.558 728.143 603.558C728.544 603.558 728.87 603.884 728.87 604.285Z" fill="#342638"/>
<path d="M724.78 604.285C724.78 604.686 724.454 605.012 724.052 605.012C723.649 605.012 723.323 604.686 723.323 604.285C723.323 603.884 723.649 603.558 724.052 603.558C724.454 603.558 724.78 603.884 724.78 604.285Z" fill="#342638"/>
<path d="M720.689 604.285C720.689 604.686 720.363 605.012 719.961 605.012C719.559 605.012 719.233 604.686 719.233 604.285C719.233 603.884 719.559 603.558 719.961 603.558C720.363 603.558 720.689 603.884 720.689 604.285Z" fill="#342638"/>
<path d="M716.598 604.285C716.598 604.686 716.272 605.012 715.87 605.012C715.468 605.012 715.142 604.686 715.142 604.285C715.142 603.884 715.468 603.558 715.87 603.558C716.272 603.558 716.598 603.884 716.598 604.285Z" fill="#342638"/>
<path d="M712.507 604.285C712.507 604.686 712.181 605.012 711.779 605.012C711.377 605.012 711.051 604.686 711.051 604.285C711.051 603.884 711.377 603.558 711.779 603.558C712.181 603.558 712.507 603.884 712.507 604.285Z" fill="#342638"/>
<path d="M708.417 604.285C708.417 604.686 708.091 605.012 707.689 605.012C707.287 605.012 706.961 604.686 706.961 604.285C706.961 603.884 707.287 603.558 707.689 603.558C708.091 603.558 708.417 603.884 708.417 604.285Z" fill="#342638"/>
<path d="M706.724 607.319C706.724 607.72 706.398 608.046 705.996 608.046C705.594 608.046 705.268 607.72 705.268 607.319C705.268 606.918 705.594 606.593 705.996 606.593C706.398 606.593 706.724 606.918 706.724 607.319Z" fill="#342638"/>
<path d="M710.722 607.319C710.722 607.72 710.396 608.046 709.994 608.046C709.592 608.046 709.266 607.72 709.266 607.319C709.266 606.918 709.592 606.593 709.994 606.593C710.396 606.593 710.722 606.918 710.722 607.319Z" fill="#342638"/>
<path d="M714.721 607.319C714.721 607.72 714.394 608.046 713.993 608.046C713.591 608.046 713.265 607.72 713.265 607.319C713.265 606.918 713.591 606.593 713.993 606.593C714.394 606.593 714.721 606.918 714.721 607.319Z" fill="#342638"/>
<path d="M718.719 607.319C718.719 607.72 718.393 608.046 717.991 608.046C717.588 608.046 717.263 607.72 717.263 607.319C717.263 606.918 717.588 606.593 717.991 606.593C718.393 606.593 718.719 606.918 718.719 607.319Z" fill="#342638"/>
<path d="M722.717 607.319C722.717 607.72 722.391 608.046 721.989 608.046C721.587 608.046 721.261 607.72 721.261 607.319C721.261 606.918 721.587 606.593 721.989 606.593C722.391 606.593 722.717 606.918 722.717 607.319Z" fill="#342638"/>
<path d="M726.715 607.319C726.715 607.72 726.389 608.046 725.987 608.046C725.585 608.046 725.259 607.72 725.259 607.319C725.259 606.918 725.585 606.593 725.987 606.593C726.389 606.593 726.715 606.918 726.715 607.319Z" fill="#342638"/>
<path d="M730.713 607.319C730.713 607.72 730.387 608.046 729.986 608.046C729.583 608.046 729.258 607.72 729.258 607.319C729.258 606.918 729.583 606.593 729.986 606.593C730.387 606.593 730.713 606.918 730.713 607.319Z" fill="#342638"/>
<path d="M728.87 610.001C728.87 610.402 728.544 610.727 728.143 610.727C727.74 610.727 727.414 610.402 727.414 610.001C727.414 609.6 727.74 609.274 728.143 609.274C728.544 609.274 728.87 609.6 728.87 610.001Z" fill="#342638"/>
<path d="M724.78 610.001C724.78 610.402 724.454 610.727 724.052 610.727C723.649 610.727 723.323 610.402 723.323 610.001C723.323 609.6 723.649 609.274 724.052 609.274C724.454 609.274 724.78 609.6 724.78 610.001Z" fill="#342638"/>
<path d="M720.689 610.001C720.689 610.402 720.363 610.727 719.961 610.727C719.559 610.727 719.233 610.402 719.233 610.001C719.233 609.6 719.559 609.274 719.961 609.274C720.363 609.274 720.689 609.6 720.689 610.001Z" fill="#342638"/>
<path d="M716.598 610.001C716.598 610.402 716.272 610.727 715.87 610.727C715.468 610.727 715.142 610.402 715.142 610.001C715.142 609.6 715.468 609.274 715.87 609.274C716.272 609.274 716.598 609.6 716.598 610.001Z" fill="#342638"/>
<path d="M712.507 610.001C712.507 610.402 712.181 610.727 711.779 610.727C711.377 610.727 711.051 610.402 711.051 610.001C711.051 609.6 711.377 609.274 711.779 609.274C712.181 609.274 712.507 609.6 712.507 610.001Z" fill="#342638"/>
<path d="M708.417 610.001C708.417 610.402 708.091 610.727 707.689 610.727C707.287 610.727 706.961 610.402 706.961 610.001C706.961 609.6 707.287 609.274 707.689 609.274C708.091 609.274 708.417 609.6 708.417 610.001Z" fill="#342638"/>
<path d="M651.396 432.283C651.396 432.283 652.417 432.217 654.246 432.78C656.056 433.328 658.677 434.623 661.16 437.291C663.666 439.936 665.753 443.964 667.273 448.846C668.789 453.729 670.179 459.399 671.124 465.767C673.078 478.503 673.36 493.879 672.241 510.854C671.816 515.072 670.908 519.566 668.312 523.359C667.035 525.236 665.39 526.932 663.369 528.137C661.371 529.341 658.937 530.025 656.524 529.759C654.134 529.516 651.763 528.518 650.023 526.74C649.16 525.855 648.478 524.764 648.103 523.561C647.716 522.343 647.726 521.016 648.052 519.795C648.711 517.366 650.475 515.182 652.948 514.288C654.177 513.843 655.583 513.855 656.827 514.298C658.066 514.753 659.127 515.602 659.919 516.626C661.531 518.692 661.999 521.427 661.623 523.888C661.273 526.379 660.274 528.664 659.094 530.775C656.694 535 653.178 538.482 649.103 540.828C640.914 545.618 630.684 545.339 623.126 541.19C619.316 539.14 616.157 536.239 613.654 533.04C611.139 529.837 609.268 526.316 607.903 522.766C605.183 515.628 604.398 508.502 604.061 502.098C603.711 495.67 604.073 489.846 603.433 484.811C603.113 482.3 602.593 479.986 601.802 477.972C601.031 475.951 599.971 474.253 598.868 472.862C596.638 470.066 594.12 468.652 592.358 468.054C590.575 467.45 589.556 467.452 589.567 467.386C589.567 467.386 590.586 467.324 592.417 467.88C594.225 468.429 596.828 469.822 599.144 472.638C600.29 474.04 601.394 475.756 602.207 477.813C603.038 479.859 603.592 482.205 603.94 484.746C604.634 489.846 604.315 495.678 604.706 502.064C605.081 508.433 605.904 515.487 608.61 522.493C609.967 525.976 611.817 529.424 614.287 532.546C616.744 535.665 619.83 538.475 623.524 540.45C630.845 544.447 640.763 544.692 648.653 540.055C652.591 537.784 655.99 534.408 658.304 530.329C659.443 528.288 660.397 526.082 660.719 523.764C661.065 521.462 660.63 519.027 659.195 517.183C658.49 516.273 657.566 515.541 656.512 515.153C655.456 514.785 654.306 514.769 653.25 515.147C651.128 515.897 649.503 517.876 648.93 520.026C648.293 522.2 649.104 524.533 650.672 526.113C652.229 527.713 654.414 528.646 656.612 528.87C658.826 529.117 661.034 528.501 662.917 527.378C664.805 526.257 666.369 524.658 667.59 522.87C670.069 519.268 670.974 514.929 671.403 510.77C672.561 493.897 672.348 478.531 670.485 465.861C669.586 459.52 668.246 453.867 666.786 448.998C665.323 444.14 663.315 440.162 660.897 437.531C658.5 434.875 655.956 433.551 654.188 432.955C652.404 432.343 651.384 432.348 651.396 432.283Z" fill="#DFDFDF"/>
<path d="M637.628 468.697H579.345V457.615H637.628V468.697Z" fill="#DFDFDF"/>
<path d="M216.941 735.496H140.922V572.186H216.941V735.496Z" fill="#342638"/>
<path d="M210.403 718.295C210.403 718.295 210.385 718.048 210.376 717.589C210.369 717.101 210.36 716.431 210.349 715.56C210.336 713.75 210.318 711.13 210.295 707.746C210.267 700.918 210.226 691.015 210.175 678.571C210.124 653.679 210.052 618.626 209.968 577.839L210.402 578.272C190.667 578.279 169.157 578.286 146.808 578.294H146.799L147.255 577.839C147.206 632.399 147.162 681.945 147.129 718.295L146.799 717.965C166.378 718.04 182.236 718.1 193.235 718.143C198.719 718.178 202.99 718.206 205.926 718.225C207.362 718.24 208.465 718.252 209.247 718.261C210 718.272 210.403 718.295 210.403 718.295C210.403 718.295 210.046 718.318 209.314 718.33C208.546 718.338 207.463 718.35 206.054 718.365C203.134 718.384 198.888 718.412 193.436 718.447C182.389 718.489 166.463 718.55 146.799 718.625L146.468 718.626V718.295C146.435 681.945 146.391 632.399 146.342 577.839L146.341 577.383H146.799H146.808C169.157 577.391 190.667 577.399 210.402 577.406H210.837L210.836 577.839C210.753 618.745 210.681 653.899 210.63 678.863C210.579 691.265 210.538 701.134 210.51 707.939C210.487 711.284 210.468 713.874 210.456 715.664C210.444 716.512 210.435 717.166 210.429 717.642C210.42 718.083 210.403 718.295 210.403 718.295Z" fill="#584464"/>
<path d="M206.476 589.726C206.451 589.701 206.425 589.115 206.389 588.023C206.362 586.857 206.324 585.287 206.276 583.291L206.476 583.491C196.638 583.642 175.554 583.746 151.172 583.746H151.17C151.374 583.543 150.713 584.201 151.626 583.291V583.294V583.301V583.314V583.339V583.391V583.494V583.701V584.113V584.935C151.625 585.482 151.625 586.025 151.625 586.563C151.624 587.64 151.624 588.698 151.623 589.726L151.169 589.273C166.639 589.283 180.385 589.375 190.331 589.468C195.243 589.524 199.23 589.569 202.1 589.602C203.426 589.628 204.493 589.648 205.316 589.664C206.057 589.685 206.456 589.706 206.476 589.726C206.497 589.747 206.14 589.767 205.437 589.788C204.639 589.804 203.607 589.825 202.323 589.85C199.479 589.883 195.528 589.928 190.66 589.984C180.734 590.076 166.827 590.17 151.169 590.179L150.715 590.18V589.726C150.714 588.698 150.713 587.64 150.713 586.563C150.713 586.025 150.712 585.482 150.712 584.935V584.113V583.701V583.494V583.391V583.339V583.314V583.301V583.294V583.291C151.625 582.379 150.966 583.038 151.17 582.835H151.172C175.554 582.835 196.638 582.939 206.476 583.091L206.681 583.094L206.676 583.291C206.629 585.336 206.591 586.945 206.563 588.139C206.527 589.217 206.501 589.751 206.476 589.726Z" fill="#584464"/>
<path d="M156.736 594.35C156.736 594.602 155.594 594.806 154.186 594.806C152.778 594.806 151.636 594.602 151.636 594.35C151.636 594.098 152.778 593.894 154.186 593.894C155.594 593.894 156.736 594.098 156.736 594.35Z" fill="#584464"/>
<path d="M204.998 602.777C204.998 603.028 193.226 603.232 178.708 603.232C164.185 603.232 152.416 603.028 152.416 602.777C152.416 602.525 164.185 602.321 178.708 602.321C193.226 602.321 204.998 602.525 204.998 602.777Z" fill="#584464"/>
<path d="M205.224 612.955C205.224 613.207 193.656 613.411 179.388 613.411C165.116 613.411 153.55 613.207 153.55 612.955C153.55 612.703 165.116 612.499 179.388 612.499C193.656 612.499 205.224 612.703 205.224 612.955Z" fill="#584464"/>
<path d="M182.891 636.738C182.891 639.044 181.018 640.913 178.707 640.913C176.396 640.913 174.524 639.044 174.524 636.738C174.524 634.432 176.396 632.562 178.707 632.562C181.018 632.562 182.891 634.432 182.891 636.738Z" fill="#DFDFDF"/>
<path d="M166.917 636.545C166.917 636.797 164.412 637.001 161.325 637.001C158.235 637.001 155.731 636.797 155.731 636.545C155.731 636.294 158.235 636.09 161.325 636.09C164.412 636.09 166.917 636.294 166.917 636.545Z" fill="#584464"/>
<path d="M200.877 635.47C200.877 635.721 198.493 635.926 195.554 635.926C192.613 635.926 190.231 635.721 190.231 635.47C190.231 635.218 192.613 635.014 195.554 635.014C198.493 635.014 200.877 635.218 200.877 635.47Z" fill="#584464"/>
<path d="M143.531 654.14C143.531 654.14 142.528 654.093 140.684 653.618C138.853 653.132 136.165 652.171 133.158 650.141C130.153 648.141 126.858 645.034 124.085 640.699C121.294 636.378 119.051 630.902 117.467 624.657C115.871 618.423 114.825 611.334 115.368 603.735C115.88 596.183 118.212 588.024 123.35 581.089C125.881 577.626 129.084 574.492 132.881 572.052C134.788 570.848 136.835 569.818 138.999 569.018C141.176 568.246 143.452 567.717 145.769 567.407C150.407 566.764 155.148 566.852 159.893 566.575C164.614 566.308 169.462 565.552 173.778 563.381C178.087 561.275 181.479 557.41 182.397 552.811C183.442 548.277 182.263 543.383 179.273 540.004C176.353 536.616 171.927 534.518 167.627 534.778C165.491 534.929 163.38 535.638 161.772 536.945C160.156 538.228 159.182 540.231 159.322 542.227C159.609 546.259 163.307 549.615 167.145 549.771C171.058 550.038 174.721 547.957 177.177 545.274C179.651 542.508 181.069 539.092 182.03 535.769C182.979 532.423 183.559 529.106 184.054 525.949C185.837 513.249 185.235 502.8 184.982 495.647C184.802 492.098 184.662 489.325 184.564 487.389C184.521 486.479 184.488 485.767 184.463 485.24C184.445 484.756 184.444 484.507 184.46 484.506C184.475 484.505 184.508 484.752 184.556 485.234C184.603 485.76 184.666 486.469 184.747 487.377C184.899 489.262 185.122 492.041 185.338 495.628C185.698 502.783 186.405 513.246 184.694 526.04C184.215 529.225 183.654 532.556 182.708 535.963C181.747 539.343 180.32 542.868 177.74 545.78C175.172 548.602 171.343 550.834 167.09 550.571C162.865 550.378 158.842 546.818 158.481 542.273C158.312 540.001 159.435 537.705 161.227 536.283C163.01 534.832 165.275 534.079 167.566 533.909C172.209 533.629 176.845 535.842 179.952 539.422C183.129 542.999 184.392 548.221 183.285 553.006C182.76 555.399 181.686 557.716 180.065 559.618C178.486 561.553 176.418 563.063 174.191 564.194C169.696 566.453 164.727 567.212 159.947 567.48C155.152 567.756 150.438 567.666 145.892 568.292C143.62 568.592 141.409 569.105 139.299 569.849C137.199 570.622 135.209 571.619 133.351 572.786C129.651 575.152 126.513 578.205 124.028 581.587C118.983 588.359 116.663 596.342 116.124 603.792C115.555 611.281 116.549 618.306 118.093 624.499C119.625 630.706 121.802 636.135 124.516 640.426C127.213 644.73 130.42 647.826 133.359 649.849C136.298 651.898 138.934 652.902 140.734 653.441C141.639 653.705 142.341 653.877 142.816 653.967C143.291 654.066 143.534 654.124 143.531 654.14Z" fill="#342638"/>
<path d="M297.635 442.214H117.629V318.853H297.635V442.214Z" fill="#342638"/>
<path d="M218.224 471.93H193.715V425.395H218.224V471.93Z" fill="#342638"/>
<path d="M135.545 470.141V486.889H228.415V736.31H236.962V486.889L624.849 488.8V736.31H633.227V488.334L693.088 488.814V468.697L135.545 470.141Z" fill="#342638"/>
<path d="M194.977 483.633L231.598 509.95L228.415 512.999L191.493 485.234L194.977 483.633Z" fill="#342638"/>
<path d="M667.743 486.088L625.251 516.287L628.433 519.336L671.226 487.69L667.743 486.088Z" fill="#342638"/>
<path d="M366.596 463.976H270.603V471.025H366.596V463.976Z" fill="#342638"/>
<rect width="5.67373" height="60.0721" transform="matrix(0.99757 0.0696756 -0.0698375 0.997558 351.608 203.893)" fill="#141414"/>
<ellipse cx="377.872" cy="218.185" rx="31.7731" ry="15.3013" fill="#141414"/>
</svg>
