<svg width="120" height="120" viewBox="0 0 120 120" fill="none" xmlns="http://www.w3.org/2000/svg">
    <g id="joystick_FILL0_wght400_GRAD0_opsz48 1">
        <path id="Vector"
            d="M56.25 40.625V37.125C52.6667 36.2083 49.6875 34.292 47.3125 31.376C44.9375 28.4601 43.75 25.0847 43.75 21.25C43.75 16.7619 45.3375 12.9315 48.5126 9.75887C51.6877 6.58629 55.521 5 60.0126 5C64.5042 5 68.3333 6.58629 71.5 9.75887C74.6667 12.9315 76.25 16.7619 76.25 21.25C76.25 25.0847 75.0625 28.4601 72.6875 31.376C70.3125 34.292 67.3333 36.2083 63.75 37.125V40.625L101.25 62.25C102.438 62.9309 103.359 63.844 104.016 64.9893C104.672 66.1345 105 67.3881 105 68.75V81.25C105 82.6119 104.672 83.8655 104.016 85.0107C103.359 86.156 102.438 87.0691 101.25 87.75L63.75 109.375C62.556 110.042 61.2992 110.375 59.9795 110.375C58.6598 110.375 57.4167 110.042 56.25 109.375L18.75 87.75C17.5625 87.0691 16.6406 86.156 15.9844 85.0107C15.3281 83.8655 15 82.6119 15 81.25V68.75C15 67.3881 15.3281 66.1345 15.9844 64.9893C16.6406 63.844 17.5625 62.9309 18.75 62.25L56.25 40.625ZM56.25 90.25L22.5 70.875V81.25L60 102.875L97.5 81.25V70.75L63.75 90.25C62.556 90.9167 61.2992 91.25 59.9795 91.25C58.6598 91.25 57.4167 90.9167 56.25 90.25ZM56.25 67.5V49.25L28.125 65.5L60 83.875L91.75 65.375L63.75 49.25V67.5H56.25ZM59.9852 30C62.4117 30 64.4792 29.1507 66.1875 27.4522C67.8958 25.7537 68.75 23.6912 68.75 21.2647C68.75 18.8382 67.9007 16.7708 66.2022 15.0625C64.5037 13.3542 62.4412 12.5 60.0148 12.5C57.5883 12.5 55.5208 13.3493 53.8125 15.0478C52.1042 16.7463 51.25 18.8088 51.25 21.2353C51.25 23.6618 52.0992 25.7292 53.7977 27.4375C55.4963 29.1458 57.5588 30 59.9852 30Z"
            fill="#584464" />
    </g>
</svg>