<svg width="55" height="55" viewBox="0 0 55 55" fill="none" xmlns="http://www.w3.org/2000/svg">
    <path
        d="M50.1274 10.5052L32.3635 1.1809C29.3637 -0.393688 25.6364 -0.39358 22.6365 1.1809L4.87269 10.5052C1.86705 12.0827 0 15.0247 0 18.1829V36.817C0 39.9752 1.86705 42.9172 4.87257 44.4947L22.6365 53.819C25.6368 55.3939 29.3641 55.3934 32.3635 53.819L50.1273 44.4947C53.1329 42.9172 55 39.9752 55 36.817V18.1829C55 15.0248 53.1329 12.0828 50.1274 10.5052ZM50.279 36.817C50.279 38.4438 49.3173 39.9592 47.769 40.7718L30.0051 50.0961C28.4598 50.9073 26.5401 50.9073 24.9948 50.0961L7.23085 40.7718C5.6827 39.9591 4.72103 38.4438 4.72103 36.817V18.1829C4.72103 16.5562 5.6827 15.0408 7.23097 14.2283L24.9948 4.90393C26.5402 4.09268 28.4605 4.093 30.0052 4.90393L47.7691 14.2281C49.3173 15.0408 50.279 16.5561 50.279 18.1829V36.817Z"
        fill="#584464" />
    <path
        d="M25.2568 25.8596L16.4897 19.1067C15.4947 18.3401 14.0051 18.453 13.1629 19.359C12.3208 20.265 12.445 21.6208 13.4402 22.3874L20.0777 27.5L13.4402 32.6125C12.445 33.3791 12.3209 34.7349 13.1629 35.6409C14.0071 36.5488 15.497 36.6578 16.4897 35.8931L25.2568 29.1402C26.3722 28.2812 26.369 26.7163 25.2568 25.8596Z"
        fill="#584464" />
    <path
        d="M40.035 32.104H29.4133C28.1096 32.104 27.0528 33.066 27.0528 34.2528C27.0528 35.4396 28.1096 36.4015 29.4133 36.4015H40.035C41.3386 36.4015 42.3956 35.4396 42.3956 34.2528C42.3956 33.066 41.3388 32.104 40.035 32.104Z"
        fill="#584464" />
</svg>